<?xml version="1.0" encoding="UTF-8"?><svg id="hidden" xmlns="http://www.w3.org/2000/svg" viewBox="0 0 1080 600.48"><defs><style>.cls-1{fill:none;stroke:#0d1117;stroke-miterlimit:10;stroke-width:2px;}.cls-2{fill:#0d1117;font-family:Roboto-Regular, Roboto;font-size:18px;}</style></defs><text class="cls-2" transform="translate(354.24 476.64)"><tspan x="0" y="0">1</tspan></text><g><rect class="cls-1" x="300.24" y="287.28" width="48.96" height="30.24" transform="translate(627.12 -22.32) rotate(90)"/><rect class="cls-1" x="314.52" y="297.36" width="20.4" height="10.08" transform="translate(22.32 627.12) rotate(-90)"/><polygon class="cls-1" points="329.76 292.2 329.76 312.6 339.84 323.82 339.84 280.98 329.76 292.2"/></g><g><rect class="cls-1" x="707.76" y="287.28" width="48.96" height="30.24" transform="translate(429.84 1034.64) rotate(-90)"/><rect class="cls-1" x="722.04" y="297.36" width="20.4" height="10.08" transform="translate(1034.64 -429.84) rotate(90)"/><polygon class="cls-1" points="727.2 312.6 727.2 292.2 717.12 280.98 717.12 323.82 727.2 312.6"/></g><g><rect class="cls-1" x="504" y="491.04" width="48.96" height="30.24"/><rect class="cls-1" x="518.28" y="501.12" width="20.4" height="10.08" transform="translate(1056.96 1012.32) rotate(180)"/><polygon class="cls-1" points="518.28 501.12 538.68 501.12 549.9 491.04 507.06 491.04 518.28 501.12"/></g><g><rect class="cls-1" x="504" y="83.52" width="48.96" height="30.24" transform="translate(1056.96 197.28) rotate(-180)"/><rect class="cls-1" x="518.28" y="93.6" width="20.4" height="10.08"/><polygon class="cls-1" points="538.68 103.68 518.28 103.68 507.06 113.76 549.9 113.76 538.68 103.68"/></g><g><rect class="cls-1" x="359.98" y="431.3" width="48.96" height="30.24" transform="translate(428.27 -141.1) rotate(45)"/><rect class="cls-1" x="374.26" y="441.38" width="20.4" height="10.08" transform="translate(340.64 1033.94) rotate(-135)"/><polygon class="cls-1" points="380.81 435.65 395.23 450.07 410.29 450.88 380 420.59 380.81 435.65"/></g><g><rect class="cls-1" x="648.14" y="143.14" width="48.96" height="30.24" transform="translate(1036.32 745.78) rotate(-135)"/><rect class="cls-1" x="662.42" y="153.22" width="20.4" height="10.08" transform="translate(308.91 -429.26) rotate(45)"/><polygon class="cls-1" points="676.27 169.04 661.84 154.61 646.78 153.81 677.07 184.1 676.27 169.04"/></g><g><rect class="cls-1" x="648.14" y="431.3" width="48.96" height="30.24" transform="translate(-118.66 606.37) rotate(-45)"/><rect class="cls-1" x="662.42" y="441.38" width="20.4" height="10.08" transform="translate(1463.9 286.48) rotate(135)"/><polygon class="cls-1" points="661.84 450.07 676.27 435.65 677.07 420.59 646.78 450.88 661.84 450.07"/></g><g><rect class="cls-1" x="359.98" y="143.14" width="48.96" height="30.24" transform="translate(768.22 -1.68) rotate(135)"/><rect class="cls-1" x="374.26" y="153.22" width="20.4" height="10.08" transform="translate(.7 318.21) rotate(-45)"/><polygon class="cls-1" points="395.23 154.61 380.81 169.04 380 184.1 410.29 153.81 395.23 154.61"/></g><g><rect class="cls-1" x="315.75" y="364.75" width="48.96" height="30.24" transform="translate(560.98 -79.83) rotate(67.5)"/><rect class="cls-1" x="330.03" y="374.83" width="20.4" height="10.08" transform="translate(119.48 839.57) rotate(-112.5)"/><polygon class="cls-1" points="340.98 368.51 348.79 387.36 362.4 393.87 346 354.29 340.98 368.51"/></g><g><rect class="cls-1" x="692.25" y="208.8" width="48.96" height="30.24" transform="translate(784.14 971.78) rotate(-112.5)"/><rect class="cls-1" x="706.53" y="218.88" width="20.4" height="10.08" transform="translate(649.32 -523.94) rotate(67.5)"/><polygon class="cls-1" points="715.98 235.27 708.17 216.42 694.56 209.91 710.96 249.49 715.98 235.27"/></g><g><rect class="cls-1" x="581.97" y="475.02" width="48.96" height="30.24" transform="translate(-141.4 269.39) rotate(-22.5)"/><rect class="cls-1" x="596.25" y="485.1" width="20.4" height="10.08" transform="translate(1354.31 710.89) rotate(157.5)"/><polygon class="cls-1" points="595.1 489.39 613.95 481.58 620.46 467.97 580.88 484.37 595.1 489.39"/></g><g><rect class="cls-1" x="426.02" y="98.52" width="48.96" height="30.24" transform="translate(910.2 46.23) rotate(157.5)"/><rect class="cls-1" x="440.3" y="108.6" width="20.4" height="10.08" transform="translate(-9.2 181.05) rotate(-22.5)"/><polygon class="cls-1" points="461.86 114.39 443.01 122.2 436.5 135.81 476.08 119.41 461.86 114.39"/></g><g><rect class="cls-1" x="426.05" y="474.95" width="48.96" height="30.24" transform="translate(221.84 -135.11) rotate(22.5)"/><rect class="cls-1" x="440.33" y="485.03" width="20.4" height="10.08" transform="translate(679.23 1115.24) rotate(-157.5)"/><polygon class="cls-1" points="443.04 481.51 461.89 489.31 476.11 484.29 436.53 467.9 443.04 481.51"/></g><g><rect class="cls-1" x="582.01" y="98.45" width="48.96" height="30.24" transform="translate(1123.35 450.58) rotate(-157.5)"/><rect class="cls-1" x="596.29" y="108.53" width="20.4" height="10.08" transform="translate(89.63 -223.45) rotate(22.5)"/><polygon class="cls-1" points="613.98 122.13 595.13 114.32 580.91 119.34 620.49 135.73 613.98 122.13"/></g><g><rect class="cls-1" x="692.28" y="364.67" width="48.96" height="30.24" transform="translate(91.59 896.65) rotate(-67.5)"/><rect class="cls-1" x="706.56" y="374.75" width="20.4" height="10.08" transform="translate(1341.93 -137.07) rotate(112.5)"/><polygon class="cls-1" points="708.2 387.29 716.01 368.44 710.99 354.22 694.59 393.8 708.2 387.29"/></g><g><rect class="cls-1" x="315.78" y="208.72" width="48.96" height="30.24" transform="translate(677.27 -4.86) rotate(112.5)"/><rect class="cls-1" x="330.06" y="218.8" width="20.4" height="10.08" transform="translate(3.25 452.54) rotate(-67.5)"/><polygon class="cls-1" points="348.82 216.35 341.01 235.19 346.03 249.42 362.43 209.84 348.82 216.35"/></g><text class="cls-2" transform="translate(303.84 397.44)"><tspan x="0" y="0">2</tspan></text><text class="cls-2" transform="translate(285.12 306.72)"><tspan x="0" y="0">3</tspan></text><text class="cls-2" transform="translate(303.84 216)"><tspan x="0" y="0">4</tspan></text><text class="cls-2" transform="translate(357.12 138.24)"><tspan x="0" y="0">5</tspan></text><text class="cls-2" transform="translate(433.44 90.72)"><tspan x="0" y="0">6</tspan></text><text class="cls-2" transform="translate(524.16 73.44)"><tspan x="0" y="0">7</tspan></text><text class="cls-2" transform="translate(613.44 89.28)"><tspan x="0" y="0">8</tspan></text><text class="cls-2" transform="translate(691.2 138.24)"><tspan x="0" y="0">9</tspan></text><text class="cls-2" transform="translate(740.16 216)"><tspan x="0" y="0">10</tspan></text><text class="cls-2" transform="translate(757.44 308.16)"><tspan x="0" y="0">11</tspan></text><text class="cls-2" transform="translate(740.16 401.76)"><tspan x="0" y="0">12</tspan></text><text class="cls-2" transform="translate(689.76 476.64)"><tspan x="0" y="0">13</tspan></text><text class="cls-2" transform="translate(610.56 528.48)"><tspan x="0" y="0">14</tspan></text><text class="cls-2" transform="translate(516.96 545.76)"><tspan x="0" y="0">15</tspan></text><text class="cls-2" transform="translate(424.8 527.04)"><tspan x="0" y="0">16</tspan></text></svg>