<?xml version="1.0" encoding="UTF-8"?>
<svg id="text" xmlns="http://www.w3.org/2000/svg" width="338.089mm" height="190.175mm" viewBox="0 0 958.361 539.078">
  <rect x="716.762" y="378.723" width="43.2" height="43.2" fill="gray" opacity=".2"/>
  <rect x="493.562" y="378.723" width="43.2" height="43.2" fill="gray" opacity=".2"/>
  <rect x="405.722" y="378.723" width="43.2" height="43.2" fill="gray" opacity=".2"/>
  <rect x="319.322" y="378.723" width="43.2" height="43.2" fill="gray" opacity=".2"/>
  <rect x="231.482" y="378.723" width="43.2" height="43.2" fill="gray" opacity=".2"/>
  <path d="m896.762,216.003h0v-17.28h-28.8c0,2.386-1.934,4.32-4.32,4.32s-4.32-1.934-4.32-4.32h-5.76c0,2.386-1.934,4.32-4.32,4.32s-4.32-1.934-4.32-4.32h-5.76c0,2.386-1.934,4.32-4.32,4.32s-4.32-1.934-4.32-4.32h-5.76c0,2.386-1.934,4.32-4.32,4.32s-4.32-1.934-4.32-4.32h-5.76c0,2.386-1.934,4.32-4.32,4.32s-4.32-1.934-4.32-4.32H238.682v17.28c2.386,0,4.32,1.934,4.32,4.32s-1.934,4.32-4.32,4.32v38.88h53.28c0-2.386,1.934-4.32,4.32-4.32s4.32,1.934,4.32,4.32h79.2c0-2.386,1.934-4.32,4.32-4.32s4.32,1.934,4.32,4.32h77.76c0-2.386,1.934-4.32,4.32-4.32h0s311.04,0,311.04,0h0c2.386,0,4.32,1.935,4.32,4.32h110.88v-10.08h0c-2.386,0-4.32-1.934-4.32-4.32s1.934-4.32,4.32-4.32h0v-5.76h0c-2.386,0-4.32-1.934-4.32-4.32s1.934-4.32,4.32-4.32h0v-5.76h0c-2.386,0-4.32-1.934-4.32-4.32s1.934-4.32,4.32-4.32Zm-14.4,40.32h-86.4v-43.2h86.4v43.2Z" fill="gray" opacity=".2"/>
  <path d="m872.282,118.083h0v-17.28h-28.8c0,2.386-1.934,4.32-4.32,4.32s-4.32-1.934-4.32-4.32h-5.76c0,2.386-1.934,4.32-4.32,4.32s-4.32-1.934-4.32-4.32h-5.76c0,2.386-1.934,4.32-4.32,4.32s-4.32-1.934-4.32-4.32h-5.76c0,2.386-1.934,4.32-4.32,4.32s-4.32-1.934-4.32-4.32h-5.76c0,2.386-1.934,4.32-4.32,4.32s-4.32-1.934-4.32-4.32H214.202v17.28c2.386,0,4.32,1.934,4.32,4.32s-1.934,4.32-4.32,4.32v38.88h53.28c0-2.386,1.934-4.32,4.32-4.32s4.32,1.934,4.32,4.32h79.2c0-2.386,1.934-4.32,4.32-4.32s4.32,1.934,4.32,4.32h77.76c0-2.386,1.934-4.32,4.32-4.32h0s311.04,0,311.04,0h0c2.386,0,4.32,1.934,4.32,4.32h110.88v-10.08h0c-2.386,0-4.32-1.934-4.32-4.32s1.934-4.32,4.32-4.32h0v-5.76h0c-2.386,0-4.32-1.934-4.32-4.32s1.934-4.32,4.32-4.32h0v-5.76h0c-2.386,0-4.32-1.934-4.32-4.32s1.934-4.32,4.32-4.32Zm-14.4,40.32h-86.4v-43.2h86.4v43.2Z" fill="gray" opacity=".2"/>
  <rect x="231.482" y="378.723" width="43.2" height="43.2" fill="none" stroke="#0d1117" stroke-miterlimit="10" stroke-width="1.984"/>
  <line x1="250.202" y1="421.923" x2="253.082" y2="416.163" fill="none" stroke="#0d1117" stroke-miterlimit="10" stroke-width=".85"/>
  <line x1="255.962" y1="421.923" x2="253.082" y2="416.163" fill="none" stroke="#0d1117" stroke-miterlimit="10" stroke-width=".85"/>
  <g>
    <line x1="309.093" y1="400.323" x2="274.682" y2="400.323" fill="none" stroke="#0d1117" stroke-miterlimit="10" stroke-width="1.984"/>
    <polygon points="307.127 397.441 317.882 400.321 307.127 403.206 307.127 397.441" fill="#0d1117"/>
  </g>
  <g>
    <line x1="296.282" y1="278.073" x2="296.282" y2="400.323" fill="none" stroke="#0d1117" stroke-miterlimit="10" stroke-width="1.984"/>
    <polygon points="293.4 280.039 296.28 269.283 299.165 280.039 293.4 280.039" fill="#0d1117"/>
  </g>
  <rect x="319.322" y="378.723" width="43.2" height="43.2" fill="none" stroke="#0d1117" stroke-miterlimit="10" stroke-width="1.984"/>
  <line x1="338.042" y1="421.923" x2="340.922" y2="416.163" fill="none" stroke="#0d1117" stroke-miterlimit="10" stroke-width=".85"/>
  <line x1="343.802" y1="421.923" x2="340.922" y2="416.163" fill="none" stroke="#0d1117" stroke-miterlimit="10" stroke-width=".85"/>
  <rect x="405.722" y="378.723" width="43.2" height="43.2" fill="none" stroke="#0d1117" stroke-miterlimit="10" stroke-width="1.984"/>
  <line x1="424.442" y1="421.923" x2="427.322" y2="416.163" fill="none" stroke="#0d1117" stroke-miterlimit="10" stroke-width=".85"/>
  <line x1="430.202" y1="421.923" x2="427.322" y2="416.163" fill="none" stroke="#0d1117" stroke-miterlimit="10" stroke-width=".85"/>
  <g>
    <line x1="483.333" y1="400.323" x2="448.922" y2="400.323" fill="none" stroke="#0d1117" stroke-miterlimit="10" stroke-width="1.984"/>
    <polygon points="481.367 397.441 492.122 400.321 481.367 403.206 481.367 397.441" fill="#0d1117"/>
  </g>
  <g>
    <line x1="470.522" y1="278.073" x2="470.522" y2="400.323" fill="none" stroke="#0d1117" stroke-miterlimit="10" stroke-width="1.984"/>
    <polygon points="467.64 280.039 470.52 269.283 473.404 280.039 467.64 280.039" fill="#0d1117"/>
  </g>
  <rect x="493.562" y="378.723" width="43.2" height="43.2" fill="none" stroke="#0d1117" stroke-miterlimit="10" stroke-width="1.984"/>
  <line x1="512.282" y1="421.923" x2="515.162" y2="416.163" fill="none" stroke="#0d1117" stroke-miterlimit="10" stroke-width=".85"/>
  <line x1="518.042" y1="421.923" x2="515.162" y2="416.163" fill="none" stroke="#0d1117" stroke-miterlimit="10" stroke-width=".85"/>
  <g>
    <line x1="396.933" y1="400.323" x2="362.522" y2="400.323" fill="none" stroke="#0d1117" stroke-miterlimit="10" stroke-width="1.984"/>
    <polygon points="394.967 397.441 405.722 400.321 394.967 403.206 394.967 397.441" fill="#0d1117"/>
  </g>
  <g>
    <line x1="384.122" y1="278.073" x2="384.122" y2="400.323" fill="none" stroke="#0d1117" stroke-miterlimit="10" stroke-width="1.984"/>
    <polygon points="381.24 280.039 384.12 269.283 387.005 280.039 381.24 280.039" fill="#0d1117"/>
  </g>
  <line x1="253.082" y1="421.923" x2="253.082" y2="443.523" fill="none" stroke="#0d1117" stroke-miterlimit="10" stroke-width="1.984"/>
  <line x1="340.922" y1="421.923" x2="340.922" y2="443.523" fill="none" stroke="#0d1117" stroke-miterlimit="10" stroke-width="1.984"/>
  <line x1="427.322" y1="421.923" x2="427.322" y2="443.523" fill="none" stroke="#0d1117" stroke-miterlimit="10" stroke-width="1.984"/>
  <line x1="515.162" y1="421.923" x2="515.162" y2="443.523" fill="none" stroke="#0d1117" stroke-miterlimit="10" stroke-width="1.984"/>
  <line x1="119.162" y1="443.523" x2="515.162" y2="443.523" fill="none" stroke="#0d1117" stroke-miterlimit="10" stroke-width="1.984"/>
  <g>
    <line x1="781.562" y1="278.073" x2="781.562" y2="400.323" fill="none" stroke="#0d1117" stroke-miterlimit="10" stroke-width="1.984"/>
    <polygon points="778.68 280.039 781.56 269.283 784.445 280.039 778.68 280.039" fill="#0d1117"/>
  </g>
  <rect x="716.762" y="378.723" width="43.2" height="43.2" fill="none" stroke="#0d1117" stroke-miterlimit="10" stroke-width="1.984"/>
  <line x1="735.482" y1="421.923" x2="738.362" y2="416.163" fill="none" stroke="#0d1117" stroke-miterlimit="10" stroke-width=".85"/>
  <line x1="741.242" y1="421.923" x2="738.362" y2="416.163" fill="none" stroke="#0d1117" stroke-miterlimit="10" stroke-width=".85"/>
  <g>
    <line x1="515.162" y1="443.523" x2="516.673" y2="443.523" fill="none" stroke="#0d1117" stroke-miterlimit="10" stroke-width="1.984"/>
    <line x1="519.673" y1="443.523" x2="692.151" y2="443.523" fill="none" stroke="#0d1117" stroke-dasharray="0 0 3 3" stroke-miterlimit="10" stroke-width="1.984"/>
    <line x1="693.651" y1="443.523" x2="695.162" y2="443.523" fill="none" stroke="#0d1117" stroke-miterlimit="10" stroke-width="1.984"/>
  </g>
  <line x1="781.562" y1="400.323" x2="759.962" y2="400.323" fill="none" stroke="#0d1117" stroke-miterlimit="10" stroke-width="1.984"/>
  <g>
    <polyline points="781.562 266.332 781.562 267.843 780.051 267.843" fill="none" stroke="#0d1117" stroke-miterlimit="10" stroke-width=".907"/>
    <line x1="777.001" y1="267.843" x2="473.558" y2="267.843" fill="none" stroke="#0d1117" stroke-dasharray="0 0 3.05 3.05" stroke-miterlimit="10" stroke-width=".907"/>
    <polyline points="472.033 267.843 470.522 267.843 470.522 266.332" fill="none" stroke="#0d1117" stroke-miterlimit="10" stroke-width=".907"/>
    <line x1="470.522" y1="264.459" x2="470.522" y2="261.651" fill="none" stroke="#0d1117" stroke-dasharray="0 0 1.873 1.873" stroke-miterlimit="10" stroke-width=".907"/>
    <polyline points="470.522 260.714 470.522 259.203 472.033 259.203" fill="none" stroke="#0d1117" stroke-miterlimit="10" stroke-width=".907"/>
    <line x1="475.083" y1="259.203" x2="778.526" y2="259.203" fill="none" stroke="#0d1117" stroke-dasharray="0 0 3.05 3.05" stroke-miterlimit="10" stroke-width=".907"/>
    <polyline points="780.051 259.203 781.562 259.203 781.562 260.714" fill="none" stroke="#0d1117" stroke-miterlimit="10" stroke-width=".907"/>
    <line x1="781.562" y1="262.587" x2="781.562" y2="265.396" fill="none" stroke="#0d1117" stroke-dasharray="0 0 1.873 1.873" stroke-miterlimit="10" stroke-width=".907"/>
  </g>
  <line x1="296.282" y1="249.123" x2="296.282" y2="259.203" fill="none" stroke="#0d1117" stroke-miterlimit="10" stroke-width="1.984"/>
  <line x1="289.082" y1="234.723" x2="296.282" y2="247.683" fill="none" stroke="#0d1117" stroke-miterlimit="10" stroke-width="1.984"/>
  <circle cx="296.282" cy="247.683" r="1.44" fill="none" stroke="#0d1117" stroke-miterlimit="10" stroke-width="1.984"/>
  <line x1="296.282" y1="237.603" x2="296.282" y2="220.323" fill="none" stroke="#0d1117" stroke-miterlimit="10" stroke-width="1.984"/>
  <polygon points="293.402 236.113 296.282 237.603 296.282 234.622 293.402 236.113" fill="none" stroke="#0d1117" stroke-miterlimit="10" stroke-width="1.984"/>
  <line x1="781.562" y1="249.123" x2="781.562" y2="259.203" fill="none" stroke="#0d1117" stroke-miterlimit="10" stroke-width="1.984"/>
  <line x1="774.362" y1="234.723" x2="781.562" y2="247.683" fill="none" stroke="#0d1117" stroke-miterlimit="10" stroke-width="1.984"/>
  <circle cx="781.562" cy="247.683" r="1.44" fill="none" stroke="#0d1117" stroke-miterlimit="10" stroke-width="1.984"/>
  <line x1="781.562" y1="237.603" x2="781.562" y2="220.323" fill="none" stroke="#0d1117" stroke-miterlimit="10" stroke-width="1.984"/>
  <polygon points="778.682 236.113 781.562 237.603 781.562 234.622 778.682 236.113" fill="none" stroke="#0d1117" stroke-miterlimit="10" stroke-width="1.984"/>
  <rect x="795.962" y="213.123" width="86.4" height="43.2" fill="none" stroke="#0d1117" stroke-miterlimit="10" stroke-width="2.174"/>
  <line x1="882.362" y1="220.323" x2="892.442" y2="220.323" fill="none" stroke="#0d1117" stroke-miterlimit="10" stroke-width="1.984"/>
  <line x1="882.362" y1="234.723" x2="892.442" y2="234.723" fill="none" stroke="#0d1117" stroke-miterlimit="10" stroke-width="1.984"/>
  <line x1="882.362" y1="249.123" x2="892.442" y2="249.123" fill="none" stroke="#0d1117" stroke-miterlimit="10" stroke-width="1.984"/>
  <g>
    <line x1="291.962" y1="241.923" x2="293.85" y2="241.923" fill="none" stroke="#0d1117" stroke-miterlimit="10" stroke-width=".85"/>
    <line x1="297.611" y1="241.923" x2="792.194" y2="241.923" fill="none" stroke="#0d1117" stroke-dasharray="0 0 3.761 3.761" stroke-miterlimit="10" stroke-width=".85"/>
    <line x1="794.074" y1="241.923" x2="795.962" y2="241.923" fill="none" stroke="#0d1117" stroke-miterlimit="10" stroke-width=".85"/>
  </g>
  <line x1="384.122" y1="249.123" x2="384.122" y2="259.203" fill="none" stroke="#0d1117" stroke-miterlimit="10" stroke-width="1.984"/>
  <line x1="376.922" y1="234.723" x2="384.122" y2="247.683" fill="none" stroke="#0d1117" stroke-miterlimit="10" stroke-width="1.984"/>
  <circle cx="384.122" cy="247.683" r="1.44" fill="none" stroke="#0d1117" stroke-miterlimit="10" stroke-width="1.984"/>
  <line x1="384.122" y1="237.603" x2="384.122" y2="220.323" fill="none" stroke="#0d1117" stroke-miterlimit="10" stroke-width="1.984"/>
  <polygon points="381.242 236.113 384.122 237.603 384.122 234.622 381.242 236.113" fill="none" stroke="#0d1117" stroke-miterlimit="10" stroke-width="1.984"/>
  <line x1="470.522" y1="249.123" x2="470.522" y2="259.203" fill="none" stroke="#0d1117" stroke-miterlimit="10" stroke-width="1.984"/>
  <line x1="463.322" y1="234.723" x2="470.522" y2="247.683" fill="none" stroke="#0d1117" stroke-miterlimit="10" stroke-width="1.984"/>
  <circle cx="470.522" cy="247.683" r="1.44" fill="none" stroke="#0d1117" stroke-miterlimit="10" stroke-width="1.984"/>
  <line x1="470.522" y1="237.603" x2="470.522" y2="220.323" fill="none" stroke="#0d1117" stroke-miterlimit="10" stroke-width="1.984"/>
  <polygon points="467.642 236.113 470.522 237.603 470.522 234.622 467.642 236.113" fill="none" stroke="#0d1117" stroke-miterlimit="10" stroke-width="1.984"/>
  <g>
    <polyline points="757.082 168.412 757.082 169.923 755.571 169.923" fill="none" stroke="#0d1117" stroke-miterlimit="10" stroke-width=".907"/>
    <line x1="752.521" y1="169.923" x2="449.078" y2="169.923" fill="none" stroke="#0d1117" stroke-dasharray="0 0 3.05 3.05" stroke-miterlimit="10" stroke-width=".907"/>
    <polyline points="447.553 169.923 446.042 169.923 446.042 168.412" fill="none" stroke="#0d1117" stroke-miterlimit="10" stroke-width=".907"/>
    <line x1="446.042" y1="166.539" x2="446.042" y2="163.731" fill="none" stroke="#0d1117" stroke-dasharray="0 0 1.873 1.873" stroke-miterlimit="10" stroke-width=".907"/>
    <polyline points="446.042 162.794 446.042 161.283 447.553 161.283" fill="none" stroke="#0d1117" stroke-miterlimit="10" stroke-width=".907"/>
    <line x1="450.603" y1="161.283" x2="754.046" y2="161.283" fill="none" stroke="#0d1117" stroke-dasharray="0 0 3.05 3.05" stroke-miterlimit="10" stroke-width=".907"/>
    <polyline points="755.571 161.283 757.082 161.283 757.082 162.794" fill="none" stroke="#0d1117" stroke-miterlimit="10" stroke-width=".907"/>
    <line x1="757.082" y1="164.667" x2="757.082" y2="167.476" fill="none" stroke="#0d1117" stroke-dasharray="0 0 1.873 1.873" stroke-miterlimit="10" stroke-width=".907"/>
  </g>
  <line x1="271.802" y1="151.203" x2="271.802" y2="161.283" fill="none" stroke="#0d1117" stroke-miterlimit="10" stroke-width="1.984"/>
  <line x1="264.602" y1="136.803" x2="271.802" y2="149.763" fill="none" stroke="#0d1117" stroke-miterlimit="10" stroke-width="1.984"/>
  <circle cx="271.802" cy="149.763" r="1.44" fill="none" stroke="#0d1117" stroke-miterlimit="10" stroke-width="1.984"/>
  <line x1="271.802" y1="139.683" x2="271.802" y2="122.403" fill="none" stroke="#0d1117" stroke-miterlimit="10" stroke-width="1.984"/>
  <polygon points="268.922 138.193 271.802 139.683 271.802 136.702 268.922 138.193" fill="none" stroke="#0d1117" stroke-miterlimit="10" stroke-width="1.984"/>
  <line x1="757.082" y1="151.203" x2="757.082" y2="161.283" fill="none" stroke="#0d1117" stroke-miterlimit="10" stroke-width="1.984"/>
  <line x1="749.882" y1="136.803" x2="757.082" y2="149.763" fill="none" stroke="#0d1117" stroke-miterlimit="10" stroke-width="1.984"/>
  <circle cx="757.082" cy="149.763" r="1.44" fill="none" stroke="#0d1117" stroke-miterlimit="10" stroke-width="1.984"/>
  <line x1="757.082" y1="139.683" x2="757.082" y2="122.403" fill="none" stroke="#0d1117" stroke-miterlimit="10" stroke-width="1.984"/>
  <polygon points="754.202 138.193 757.082 139.683 757.082 136.702 754.202 138.193" fill="none" stroke="#0d1117" stroke-miterlimit="10" stroke-width="1.984"/>
  <rect x="771.482" y="115.203" width="86.4" height="43.2" fill="none" stroke="#0d1117" stroke-miterlimit="10" stroke-width="2.174"/>
  <line x1="857.882" y1="122.403" x2="867.962" y2="122.403" fill="none" stroke="#0d1117" stroke-miterlimit="10" stroke-width="1.984"/>
  <line x1="857.882" y1="136.803" x2="867.962" y2="136.803" fill="none" stroke="#0d1117" stroke-miterlimit="10" stroke-width="1.984"/>
  <line x1="857.882" y1="151.203" x2="867.962" y2="151.203" fill="none" stroke="#0d1117" stroke-miterlimit="10" stroke-width="1.984"/>
  <g>
    <line x1="267.482" y1="144.003" x2="269.37" y2="144.003" fill="none" stroke="#0d1117" stroke-miterlimit="10" stroke-width=".85"/>
    <line x1="273.131" y1="144.003" x2="767.714" y2="144.003" fill="none" stroke="#0d1117" stroke-dasharray="0 0 3.761 3.761" stroke-miterlimit="10" stroke-width=".85"/>
    <line x1="769.594" y1="144.003" x2="771.482" y2="144.003" fill="none" stroke="#0d1117" stroke-miterlimit="10" stroke-width=".85"/>
  </g>
  <line x1="359.642" y1="151.203" x2="359.642" y2="161.283" fill="none" stroke="#0d1117" stroke-miterlimit="10" stroke-width="1.984"/>
  <line x1="352.442" y1="136.803" x2="359.642" y2="149.763" fill="none" stroke="#0d1117" stroke-miterlimit="10" stroke-width="1.984"/>
  <circle cx="359.642" cy="149.763" r="1.44" fill="none" stroke="#0d1117" stroke-miterlimit="10" stroke-width="1.984"/>
  <line x1="359.642" y1="139.683" x2="359.642" y2="122.403" fill="none" stroke="#0d1117" stroke-miterlimit="10" stroke-width="1.984"/>
  <polygon points="356.762 138.193 359.642 139.683 359.642 136.702 356.762 138.193" fill="none" stroke="#0d1117" stroke-miterlimit="10" stroke-width="1.984"/>
  <line x1="446.042" y1="151.203" x2="446.042" y2="161.283" fill="none" stroke="#0d1117" stroke-miterlimit="10" stroke-width="1.984"/>
  <line x1="438.842" y1="136.803" x2="446.042" y2="149.763" fill="none" stroke="#0d1117" stroke-miterlimit="10" stroke-width="1.984"/>
  <circle cx="446.042" cy="149.763" r="1.44" fill="none" stroke="#0d1117" stroke-miterlimit="10" stroke-width="1.984"/>
  <line x1="446.042" y1="139.683" x2="446.042" y2="122.403" fill="none" stroke="#0d1117" stroke-miterlimit="10" stroke-width="1.984"/>
  <polygon points="443.162 138.193 446.042 139.683 446.042 136.702 443.162 138.193" fill="none" stroke="#0d1117" stroke-miterlimit="10" stroke-width="1.984"/>
  <g>
    <line x1="271.802" y1="178.713" x2="271.802" y2="196.479" fill="none" stroke="#0d1117" stroke-miterlimit="10" stroke-width="1.984"/>
    <polygon points="268.92 180.679 271.8 169.923 274.685 180.679 268.92 180.679" fill="#0d1117"/>
  </g>
  <polyline points="296.282 298.083 271.802 298.083 271.802 263.523" fill="none" stroke="#0d1117" stroke-miterlimit="10" stroke-width="2"/>
  <polyline points="470.522 298.083 446.042 298.083 446.042 263.523" fill="none" stroke="#0d1117" stroke-miterlimit="10" stroke-width="2"/>
  <g>
    <line x1="446.042" y1="178.713" x2="446.042" y2="196.479" fill="none" stroke="#0d1117" stroke-miterlimit="10" stroke-width="1.984"/>
    <polygon points="443.16 180.679 446.04 169.923 448.925 180.679 443.16 180.679" fill="#0d1117"/>
  </g>
  <g>
    <line x1="757.082" y1="178.713" x2="757.082" y2="196.479" fill="none" stroke="#0d1117" stroke-miterlimit="10" stroke-width="1.984"/>
    <polygon points="754.2 180.679 757.08 169.923 759.965 180.679 754.2 180.679" fill="#0d1117"/>
  </g>
  <path d="m291.962,263.523c0,2.386,1.934,4.32,4.32,4.32s4.32-1.934,4.32-4.32" fill="none" stroke="#0d1117" stroke-miterlimit="10" stroke-width="1.984"/>
  <path d="m300.602,263.523c0-2.386-1.934-4.32-4.32-4.32s-4.32,1.934-4.32,4.32" fill="none" stroke="#0d1117" stroke-miterlimit="10" stroke-width="1.984"/>
  <path d="m777.242,263.523c0,2.386,1.934,4.32,4.32,4.32s4.32-1.934,4.32-4.32" fill="none" stroke="#0d1117" stroke-miterlimit="10" stroke-width="1.984"/>
  <path d="m785.882,263.523c0-2.386-1.934-4.32-4.32-4.32s-4.32,1.934-4.32,4.32" fill="none" stroke="#0d1117" stroke-miterlimit="10" stroke-width="1.984"/>
  <path d="m896.762,253.443c2.386,0,4.32-1.934,4.32-4.32s-1.934-4.32-4.32-4.32" fill="none" stroke="#0d1117" stroke-miterlimit="10" stroke-width="1.984"/>
  <path d="m896.762,244.803c-2.386,0-4.32,1.934-4.32,4.32s1.934,4.32,4.32,4.32" fill="none" stroke="#0d1117" stroke-miterlimit="10" stroke-width="1.984"/>
  <path d="m896.762,239.043c2.386,0,4.32-1.934,4.32-4.32s-1.934-4.32-4.32-4.32" fill="none" stroke="#0d1117" stroke-miterlimit="10" stroke-width="1.984"/>
  <path d="m896.762,230.403c-2.386,0-4.32,1.934-4.32,4.32s1.934,4.32,4.32,4.32" fill="none" stroke="#0d1117" stroke-miterlimit="10" stroke-width="1.984"/>
  <path d="m896.762,224.643c2.386,0,4.32-1.934,4.32-4.32s-1.934-4.32-4.32-4.32" fill="none" stroke="#0d1117" stroke-miterlimit="10" stroke-width="1.984"/>
  <path d="m896.762,216.003c-2.386,0-4.32,1.934-4.32,4.32s1.934,4.32,4.32,4.32" fill="none" stroke="#0d1117" stroke-miterlimit="10" stroke-width="1.984"/>
  <path d="m379.802,263.523c0,2.386,1.934,4.32,4.32,4.32s4.32-1.934,4.32-4.32" fill="none" stroke="#0d1117" stroke-miterlimit="10" stroke-width="1.984"/>
  <path d="m388.442,263.523c0-2.386-1.934-4.32-4.32-4.32s-4.32,1.934-4.32,4.32" fill="none" stroke="#0d1117" stroke-miterlimit="10" stroke-width="1.984"/>
  <path d="m466.202,263.523c0,2.386,1.934,4.32,4.32,4.32s4.32-1.934,4.32-4.32" fill="none" stroke="#0d1117" stroke-miterlimit="10" stroke-width="1.984"/>
  <path d="m474.842,263.523c0-2.386-1.934-4.32-4.32-4.32s-4.32,1.934-4.32,4.32" fill="none" stroke="#0d1117" stroke-miterlimit="10" stroke-width="1.984"/>
  <path d="m234.362,220.323c0,2.386,1.934,4.32,4.32,4.32" fill="none" stroke="#0d1117" stroke-miterlimit="10" stroke-width="1.984"/>
  <path d="m238.682,216.003c-2.386,0-4.32,1.934-4.32,4.32h0" fill="none" stroke="#0d1117" stroke-miterlimit="10" stroke-width="1.984"/>
  <path d="m243.002,220.323h0c0-2.386-1.934-4.32-4.32-4.32" fill="none" stroke="#0d1117" stroke-miterlimit="10" stroke-width="1.984"/>
  <path d="m238.682,224.643c2.386,0,4.32-1.934,4.32-4.32" fill="none" stroke="#0d1117" stroke-miterlimit="10" stroke-width="1.984"/>
  <path d="m267.482,165.603c0,2.386,1.934,4.32,4.32,4.32s4.32-1.934,4.32-4.32" fill="none" stroke="#0d1117" stroke-miterlimit="10" stroke-width="1.984"/>
  <path d="m276.122,165.603c0-2.386-1.934-4.32-4.32-4.32s-4.32,1.934-4.32,4.32" fill="none" stroke="#0d1117" stroke-miterlimit="10" stroke-width="1.984"/>
  <path d="m752.762,165.603c0,2.386,1.934,4.32,4.32,4.32s4.32-1.934,4.32-4.32" fill="none" stroke="#0d1117" stroke-miterlimit="10" stroke-width="1.984"/>
  <path d="m761.402,165.603c0-2.386-1.934-4.32-4.32-4.32s-4.32,1.934-4.32,4.32" fill="none" stroke="#0d1117" stroke-miterlimit="10" stroke-width="1.984"/>
  <path d="m872.282,155.523c2.386,0,4.32-1.934,4.32-4.32s-1.934-4.32-4.32-4.32" fill="none" stroke="#0d1117" stroke-miterlimit="10" stroke-width="1.984"/>
  <path d="m872.282,146.883c-2.386,0-4.32,1.934-4.32,4.32s1.934,4.32,4.32,4.32" fill="none" stroke="#0d1117" stroke-miterlimit="10" stroke-width="1.984"/>
  <path d="m872.282,141.123c2.386,0,4.32-1.934,4.32-4.32s-1.934-4.32-4.32-4.32" fill="none" stroke="#0d1117" stroke-miterlimit="10" stroke-width="1.984"/>
  <path d="m872.282,132.483h0c-2.386,0-4.32,1.934-4.32,4.32s1.934,4.32,4.32,4.32" fill="none" stroke="#0d1117" stroke-miterlimit="10" stroke-width="1.984"/>
  <path d="m872.282,126.723c2.386,0,4.32-1.934,4.32-4.32s-1.934-4.32-4.32-4.32" fill="none" stroke="#0d1117" stroke-miterlimit="10" stroke-width="1.984"/>
  <path d="m872.282,118.083h0c-2.386,0-4.32,1.934-4.32,4.32s1.934,4.32,4.32,4.32h0" fill="none" stroke="#0d1117" stroke-miterlimit="10" stroke-width="1.984"/>
  <path d="m355.322,165.603c0,2.386,1.934,4.32,4.32,4.32s4.32-1.934,4.32-4.32" fill="none" stroke="#0d1117" stroke-miterlimit="10" stroke-width="1.984"/>
  <path d="m363.962,165.603c0-2.386-1.934-4.32-4.32-4.32s-4.32,1.934-4.32,4.32" fill="none" stroke="#0d1117" stroke-miterlimit="10" stroke-width="1.984"/>
  <path d="m441.722,165.603c0,2.386,1.934,4.32,4.32,4.32s4.32-1.934,4.32-4.32" fill="none" stroke="#0d1117" stroke-miterlimit="10" stroke-width="1.984"/>
  <path d="m450.362,165.603c0-2.386-1.934-4.32-4.32-4.32s-4.32,1.934-4.32,4.32" fill="none" stroke="#0d1117" stroke-miterlimit="10" stroke-width="1.984"/>
  <path d="m209.882,122.403c0,2.386,1.934,4.32,4.32,4.32" fill="none" stroke="#0d1117" stroke-miterlimit="10" stroke-width="1.984"/>
  <path d="m214.202,118.083c-2.386,0-4.32,1.934-4.32,4.32h0" fill="none" stroke="#0d1117" stroke-miterlimit="10" stroke-width="1.984"/>
  <path d="m218.522,122.403h0c0-2.386-1.934-4.32-4.32-4.32" fill="none" stroke="#0d1117" stroke-miterlimit="10" stroke-width="1.984"/>
  <path d="m214.202,126.723c2.386,0,4.32-1.934,4.32-4.32" fill="none" stroke="#0d1117" stroke-miterlimit="10" stroke-width="1.984"/>
  <g>
    <line x1="536.762" y1="400.323" x2="538.273" y2="400.323" fill="none" stroke="#0d1117" stroke-miterlimit="10" stroke-width="1.984"/>
    <line x1="541.342" y1="400.323" x2="674.837" y2="400.323" fill="none" stroke="#0d1117" stroke-dasharray="0 0 3.069 3.069" stroke-miterlimit="10" stroke-width="1.984"/>
    <line x1="676.371" y1="400.323" x2="677.882" y2="400.323" fill="none" stroke="#0d1117" stroke-miterlimit="10" stroke-width="1.984"/>
  </g>
  <g>
    <line x1="707.972" y1="400.323" x2="673.562" y2="400.323" fill="none" stroke="#0d1117" stroke-miterlimit="10" stroke-width="1.984"/>
    <polygon points="706.007 397.441 716.762 400.321 706.007 403.206 706.007 397.441" fill="#0d1117"/>
  </g>
  <polyline points="695.162 443.523 738.362 443.523 738.362 421.923" fill="none" stroke="#0d1117" stroke-miterlimit="10" stroke-width="1.984"/>
  <g>
    <polyline points="821.882 462.172 821.882 463.683 820.371 463.683" fill="none" stroke="#0d1117" stroke-miterlimit="10" stroke-width="1.001"/>
    <line x1="817.336" y1="463.683" x2="205.711" y2="463.683" fill="none" stroke="#0d1117" stroke-dasharray="0 0 3.035 3.035" stroke-miterlimit="10" stroke-width="1.001"/>
    <polyline points="204.193 463.683 202.682 463.683 202.682 462.172" fill="none" stroke="#0d1117" stroke-miterlimit="10" stroke-width="1.001"/>
    <line x1="202.682" y1="459.14" x2="202.682" y2="351.51" fill="none" stroke="#0d1117" stroke-dasharray="0 0 3.032 3.032" stroke-miterlimit="10" stroke-width="1.001"/>
    <polyline points="202.682 349.994 202.682 348.483 204.193 348.483" fill="none" stroke="#0d1117" stroke-miterlimit="10" stroke-width="1.001"/>
    <line x1="207.228" y1="348.483" x2="818.854" y2="348.483" fill="none" stroke="#0d1117" stroke-dasharray="0 0 3.035 3.035" stroke-miterlimit="10" stroke-width="1.001"/>
    <polyline points="820.371 348.483 821.882 348.483 821.882 349.994" fill="none" stroke="#0d1117" stroke-miterlimit="10" stroke-width="1.001"/>
    <line x1="821.882" y1="353.026" x2="821.882" y2="460.656" fill="none" stroke="#0d1117" stroke-dasharray="0 0 3.032 3.032" stroke-miterlimit="10" stroke-width="1.001"/>
  </g>
  <polyline points="384.122 298.083 359.642 298.083 359.642 263.523" fill="none" stroke="#0d1117" stroke-miterlimit="10" stroke-width="2"/>
  <polyline points="781.562 298.083 757.082 298.083 757.082 263.523" fill="none" stroke="#0d1117" stroke-miterlimit="10" stroke-width="2"/>
  <g>
    <line x1="359.642" y1="178.713" x2="359.642" y2="196.479" fill="none" stroke="#0d1117" stroke-miterlimit="10" stroke-width="1.984"/>
    <polygon points="356.76 180.679 359.64 169.923 362.525 180.679 356.76 180.679" fill="#0d1117"/>
  </g>
  <circle cx="91.802" cy="347.205" r="3.931" transform="translate(-265.625 382.205) rotate(-80.783)" fill="none" stroke="#0d1117" stroke-miterlimit="10" stroke-width="2.001"/>
  <polyline points="91.802 351.136 91.802 400.323 231.482 400.323" fill="none" stroke="#0d1117" stroke-miterlimit="10" stroke-width="2.001"/>
  <path d="m121.287,264.648c0,5.426-16.708,9.828-29.485,9.828s-29.485-4.402-29.485-9.828" fill="none" stroke="#0d1117" stroke-miterlimit="10" stroke-width="2.001"/>
  <line x1="121.287" y1="293.15" x2="121.287" y2="264.648" fill="none" stroke="#0d1117" stroke-miterlimit="10" stroke-width="2.001"/>
  <line x1="62.317" y1="293.15" x2="62.317" y2="264.648" fill="none" stroke="#0d1117" stroke-miterlimit="10" stroke-width="2.001"/>
  <path d="m121.287,293.15c0,27.137-29.485,49.141-29.485,49.141,0,0-29.485-22.004-29.485-49.141" fill="none" stroke="#0d1117" stroke-miterlimit="10" stroke-width="2.001"/>
  <path d="m121.287,257.768c0,5.426-16.708,9.828-29.485,9.828s-29.485-4.402-29.485-9.828" fill="none" stroke="#0d1117" stroke-miterlimit="10" stroke-width="2.001"/>
  <polyline points="106.202 272.51 106.202 220.323 234.362 220.323" fill="none" stroke="#0d1117" stroke-miterlimit="10" stroke-width="2.001"/>
  <polyline points="209.882 122.403 75.962 122.404 75.962 272.511" fill="none" stroke="#0d1117" stroke-miterlimit="10" stroke-width="2"/>
  <path d="m801.722,198.723h0c0,2.386,1.934,4.32,4.32,4.32s4.32-1.934,4.32-4.32h0" fill="none" stroke="#0d1117" stroke-miterlimit="10" stroke-width="1.984"/>
  <path d="m801.722,198.723c0-2.386,1.934-4.32,4.32-4.32s4.32,1.934,4.32,4.32" fill="none" stroke="#0d1117" stroke-miterlimit="10" stroke-width="1.984"/>
  <path d="m816.122,198.723c0-2.386,1.934-4.32,4.32-4.32s4.32,1.934,4.32,4.32" fill="none" stroke="#0d1117" stroke-miterlimit="10" stroke-width="1.984"/>
  <path d="m816.122,198.723h0c0,2.386,1.934,4.32,4.32,4.32s4.32-1.934,4.32-4.32h0" fill="none" stroke="#0d1117" stroke-miterlimit="10" stroke-width="1.984"/>
  <path d="m830.522,198.723c0-2.386,1.934-4.32,4.32-4.32s4.32,1.934,4.32,4.32" fill="none" stroke="#0d1117" stroke-miterlimit="10" stroke-width="1.984"/>
  <path d="m830.522,198.723h0c0,2.386,1.934,4.32,4.32,4.32s4.32-1.934,4.32-4.32h0" fill="none" stroke="#0d1117" stroke-miterlimit="10" stroke-width="1.984"/>
  <path d="m844.922,198.723c0-2.386,1.934-4.32,4.32-4.32s4.32,1.934,4.32,4.32" fill="none" stroke="#0d1117" stroke-miterlimit="10" stroke-width="1.984"/>
  <path d="m844.922,198.723h0c0,2.386,1.934,4.32,4.32,4.32s4.32-1.934,4.32-4.32h0" fill="none" stroke="#0d1117" stroke-miterlimit="10" stroke-width="1.984"/>
  <path d="m859.322,198.723c0-2.386,1.934-4.32,4.32-4.32s4.32,1.934,4.32,4.32" fill="none" stroke="#0d1117" stroke-miterlimit="10" stroke-width="1.984"/>
  <path d="m859.322,198.723h0c0,2.386,1.934,4.32,4.32,4.32s4.32-1.934,4.32-4.32h0" fill="none" stroke="#0d1117" stroke-miterlimit="10" stroke-width="1.984"/>
  <line x1="859.322" y1="198.723" x2="853.562" y2="198.723" fill="none" stroke="#0d1117" stroke-miterlimit="10" stroke-width="1.984"/>
  <path d="m867.962,198.723h28.8v17.28c-2.386,0-4.32,1.934-4.32,4.32s1.934,4.32,4.32,4.32v5.76c-2.386,0-4.32,1.934-4.32,4.32s1.934,4.32,4.32,4.32v5.76c-2.386,0-4.32,1.934-4.32,4.32s1.934,4.32,4.32,4.32v10.08h-110.88c0-2.386-1.934-4.32-4.32-4.32s-4.32,1.934-4.32,4.32" fill="none" stroke="#0d1117" stroke-miterlimit="10" stroke-width="1.984"/>
  <line x1="830.522" y1="198.723" x2="824.762" y2="198.723" fill="none" stroke="#0d1117" stroke-miterlimit="10" stroke-width="1.984"/>
  <line x1="844.922" y1="198.723" x2="839.162" y2="198.723" fill="none" stroke="#0d1117" stroke-miterlimit="10" stroke-width="1.984"/>
  <line x1="816.122" y1="198.723" x2="810.362" y2="198.723" fill="none" stroke="#0d1117" stroke-miterlimit="10" stroke-width="1.984"/>
  <path d="m801.722,198.723H238.682v17.28c2.386,0,4.32,1.934,4.32,4.32h0s538.56,0,538.56,0H243.002c0,2.386-1.934,4.32-4.32,4.32v38.88h53.28c0-2.386,1.934-4.32,4.32-4.32s4.32,1.934,4.32,4.32h79.2c0-2.386,1.934-4.32,4.32-4.32s4.32,1.934,4.32,4.32h77.76c0-2.386,1.934-4.32,4.32-4.32s4.32,1.934,4.32,4.32" fill="none" stroke="#0d1117" stroke-miterlimit="10" stroke-width="1.984"/>
  <path d="m777.242,100.803h0c0,2.386,1.934,4.32,4.32,4.32s4.32-1.934,4.32-4.32h0" fill="none" stroke="#0d1117" stroke-miterlimit="10" stroke-width="1.984"/>
  <path d="m777.242,100.803c0-2.386,1.934-4.32,4.32-4.32s4.32,1.934,4.32,4.32" fill="none" stroke="#0d1117" stroke-miterlimit="10" stroke-width="1.984"/>
  <path d="m791.642,100.803c0-2.386,1.934-4.32,4.32-4.32s4.32,1.934,4.32,4.32" fill="none" stroke="#0d1117" stroke-miterlimit="10" stroke-width="1.984"/>
  <path d="m791.642,100.803h0c0,2.386,1.934,4.32,4.32,4.32s4.32-1.934,4.32-4.32h0" fill="none" stroke="#0d1117" stroke-miterlimit="10" stroke-width="1.984"/>
  <path d="m806.042,100.803c0-2.386,1.934-4.32,4.32-4.32s4.32,1.934,4.32,4.32" fill="none" stroke="#0d1117" stroke-miterlimit="10" stroke-width="1.984"/>
  <path d="m806.042,100.803h0c0,2.386,1.934,4.32,4.32,4.32s4.32-1.934,4.32-4.32h0" fill="none" stroke="#0d1117" stroke-miterlimit="10" stroke-width="1.984"/>
  <path d="m820.442,100.803c0-2.386,1.934-4.32,4.32-4.32s4.32,1.934,4.32,4.32" fill="none" stroke="#0d1117" stroke-miterlimit="10" stroke-width="1.984"/>
  <path d="m820.442,100.803h0c0,2.386,1.934,4.32,4.32,4.32s4.32-1.934,4.32-4.32h0" fill="none" stroke="#0d1117" stroke-miterlimit="10" stroke-width="1.984"/>
  <path d="m834.842,100.803c0-2.386,1.934-4.32,4.32-4.32s4.32,1.934,4.32,4.32" fill="none" stroke="#0d1117" stroke-miterlimit="10" stroke-width="1.984"/>
  <path d="m834.842,100.803h0c0,2.386,1.934,4.32,4.32,4.32s4.32-1.934,4.32-4.32h0" fill="none" stroke="#0d1117" stroke-miterlimit="10" stroke-width="1.984"/>
  <line x1="834.842" y1="100.803" x2="829.082" y2="100.803" fill="none" stroke="#0d1117" stroke-miterlimit="10" stroke-width="1.984"/>
  <path d="m843.482,100.803s28.8,0,28.8,0v17.28h0c-2.386,0-4.32,1.934-4.32,4.32s1.934,4.32,4.32,4.32h0v5.76h0c-2.386,0-4.32,1.934-4.32,4.32s1.934,4.32,4.32,4.32v5.76c-2.386,0-4.32,1.934-4.32,4.32s1.934,4.32,4.32,4.32v10.08h-110.88c0-2.386-1.934-4.32-4.32-4.32s-4.32,1.934-4.32,4.32" fill="none" stroke="#0d1117" stroke-miterlimit="10" stroke-width="1.984"/>
  <line x1="806.042" y1="100.803" x2="800.282" y2="100.803" fill="none" stroke="#0d1117" stroke-miterlimit="10" stroke-width="1.984"/>
  <line x1="820.442" y1="100.803" x2="814.682" y2="100.803" fill="none" stroke="#0d1117" stroke-miterlimit="10" stroke-width="1.984"/>
  <line x1="791.642" y1="100.803" x2="785.882" y2="100.803" fill="none" stroke="#0d1117" stroke-miterlimit="10" stroke-width="1.984"/>
  <path d="m777.242,100.803s-563.04,0-563.04,0v17.28c2.386,0,4.32,1.934,4.32,4.32h0s538.56,0,538.56,0H218.522c0,2.386-1.934,4.32-4.32,4.32v38.88h53.28c0-2.386,1.934-4.32,4.32-4.32s4.32,1.934,4.32,4.32h79.2c0-2.386,1.934-4.32,4.32-4.32s4.32,1.934,4.32,4.32h77.76c0-2.386,1.934-4.32,4.32-4.32s4.32,1.934,4.32,4.32" fill="none" stroke="#0d1117" stroke-miterlimit="10" stroke-width="1.984"/>
  <circle cx="296.282" cy="220.323" r="2.88" fill="#0d1117" stroke="#0d1117" stroke-miterlimit="10" stroke-width="2"/>
  <circle cx="384.122" cy="220.323" r="2.88" fill="#0d1117" stroke="#0d1117" stroke-miterlimit="10" stroke-width="2"/>
  <circle cx="470.522" cy="220.323" r="2.88" fill="#0d1117" stroke="#0d1117" stroke-miterlimit="10" stroke-width="2"/>
  <circle cx="271.802" cy="122.403" r="2.88" fill="#0d1117" stroke="#0d1117" stroke-miterlimit="10" stroke-width="2"/>
  <circle cx="359.642" cy="122.403" r="2.88" fill="#0d1117" stroke="#0d1117" stroke-miterlimit="10" stroke-width="2"/>
  <circle cx="446.042" cy="122.403" r="2.88" fill="#0d1117" stroke="#0d1117" stroke-miterlimit="10" stroke-width="2"/>
  <circle cx="296.282" cy="400.323" r="2.88" fill="#0d1117" stroke="#0d1117" stroke-miterlimit="10" stroke-width="2"/>
  <circle cx="470.522" cy="400.323" r="2.88" fill="#0d1117" stroke="#0d1117" stroke-miterlimit="10" stroke-width="2"/>
  <circle cx="384.122" cy="400.323" r="2.88" fill="#0d1117" stroke="#0d1117" stroke-miterlimit="10" stroke-width="2"/>
  <circle cx="253.082" cy="443.523" r="2.88" fill="#0d1117" stroke="#0d1117" stroke-miterlimit="10" stroke-width="2"/>
  <circle cx="340.922" cy="443.523" r="2.88" fill="#0d1117" stroke="#0d1117" stroke-miterlimit="10" stroke-width="2"/>
  <circle cx="427.322" cy="443.523" r="2.88" fill="#0d1117" stroke="#0d1117" stroke-miterlimit="10" stroke-width="2"/>
  <circle cx="515.162" cy="443.523" r="2.88" fill="#0d1117" stroke="#0d1117" stroke-miterlimit="10" stroke-width="2"/>
  <circle cx="296.282" cy="299.523" r="2.88" fill="#0d1117" stroke="#0d1117" stroke-miterlimit="10" stroke-width="2"/>
  <circle cx="384.122" cy="299.523" r="2.88" fill="#0d1117" stroke="#0d1117" stroke-miterlimit="10" stroke-width="2"/>
  <circle cx="470.522" cy="299.523" r="2.88" fill="#0d1117" stroke="#0d1117" stroke-miterlimit="10" stroke-width="2"/>
  <circle cx="781.562" cy="299.523" r="2.88" fill="#0d1117" stroke="#0d1117" stroke-miterlimit="10" stroke-width="2"/>
  <g>
    <path d="m64.065,448.063c-1.213,0-2.273-.28-3.182-.84s-1.613-1.334-2.114-2.324-.751-2.136-.751-3.437c0-1.266.242-2.387.725-3.362s1.175-1.741,2.074-2.298,1.976-.835,3.23-.835c1.307,0,2.44.335,3.401,1.006s1.597,1.675,1.907,3.011l-1.969.466c-.234-.99-.647-1.723-1.239-2.197s-1.298-.712-2.118-.712c-.844,0-1.563.212-2.158.637s-1.049,1.01-1.362,1.754-.47,1.603-.47,2.575c0,.99.161,1.86.483,2.61s.776,1.333,1.362,1.749,1.28.624,2.083.624c.867,0,1.613-.26,2.237-.778s1.027-1.243,1.208-2.175l2.03.501c-.346,1.307-1,2.304-1.964,2.992s-2.102,1.033-3.415,1.033Z" fill="#0d1117"/>
    <path d="m72.977,447.844c-.463,0-.848-.138-1.156-.413s-.461-.639-.461-1.09v-11.681h1.793v11.285c0,.193.028.322.083.387s.174.097.356.097h.87v1.415h-1.485Z" fill="#0d1117"/>
    <path d="m80.21,448.063c-.908,0-1.708-.21-2.399-.629s-1.232-1.002-1.622-1.749-.584-1.609-.584-2.588.195-1.842.584-2.589.93-1.33,1.622-1.749,1.491-.628,2.399-.628,1.709.211,2.404.633,1.235,1.005,1.622,1.749.58,1.605.58,2.584-.195,1.841-.584,2.588-.93,1.33-1.622,1.749-1.491.629-2.399.629Zm0-1.424c.832,0,1.488-.318,1.969-.954s.721-1.498.721-2.588c0-1.096-.24-1.96-.721-2.593s-1.137-.949-1.969-.949-1.488.316-1.969.949-.721,1.497-.721,2.593c0,1.09.24,1.952.721,2.588s1.137.954,1.969.954Z" fill="#0d1117"/>
    <path d="m91.214,448.063c-.92,0-1.717-.202-2.391-.606s-1.192-.979-1.556-1.723-.545-1.623-.545-2.637c0-1.02.182-1.9.545-2.642s.88-1.313,1.551-1.718,1.466-.606,2.386-.606c.691,0,1.315.126,1.872.378s1.03.616,1.419,1.094.669,1.057.839,1.736l-1.767.431c-.158-.721-.438-1.271-.839-1.648s-.91-.566-1.525-.566c-.832,0-1.466.312-1.903.936s-.655,1.496-.655,2.615.218,1.987.655,2.605,1.071.928,1.903.928c.609,0,1.115-.181,1.516-.541s.684-.889.848-1.586l1.74.422c-.135.51-.331.958-.589,1.345s-.564.712-.918.976-.75.464-1.187.602-.904.207-1.402.207Z" fill="#0d1117"/>
    <path d="m97.349,447.844v-13.184h1.784v7.778l4.245-4.087h2.276l-3.823,3.586,3.92,5.906h-2.065l-3.111-4.693-1.441,1.345v3.349h-1.784Z" fill="#0d1117"/>
  </g>
  <path d="m253.078,372.964v-9.8c-.475.422-.918.771-1.332,1.05s-.877.512-1.393.699v-1.811c.287-.129.586-.289.896-.479s.655-.467,1.033-.83.804-.858,1.279-1.485h1.371v12.656h-1.854Z" fill="#0d1117"/>
  <path d="m336.325,372.964v-1.195l4.465-3.744c.574-.486,1.043-.931,1.406-1.332s.63-.81.8-1.226.255-.876.255-1.38c0-.562-.095-1.028-.285-1.397s-.465-.645-.822-.826-.788-.272-1.292-.272c-.604,0-1.088.121-1.454.364s-.636.567-.809.972-.274.85-.304,1.336l-1.978-.589c.053-.58.272-1.146.659-1.696s.911-1.004,1.573-1.358,1.433-.531,2.312-.531c.504,0,1.013.071,1.525.215s.984.369,1.415.677.777.711,1.041,1.209.396,1.099.396,1.802c0,.996-.282,1.893-.848,2.689s-1.358,1.588-2.378,2.373l-3.357,2.628-.976-.29h7.734v1.573h-9.079Z" fill="#0d1117"/>
  <path d="m427.348,373.183c-.814,0-1.564-.155-2.25-.466s-1.246-.761-1.683-1.35-.69-1.308-.761-2.157l1.881-.571c.053.926.321,1.664.805,2.215s1.141.826,1.973.826c.738,0,1.354-.213,1.846-.638s.738-1.041.738-1.85c0-.334-.07-.682-.211-1.042s-.391-.665-.751-.914-.872-.373-1.534-.373h-1.556v-1.477h1.503c.697,0,1.233-.185,1.608-.554s.562-.791.562-1.266c0-.545-.19-1.013-.571-1.402s-.926-.584-1.635-.584c-.844,0-1.468.24-1.872.721s-.639,1.16-.703,2.039l-1.863-.554c.035-.598.242-1.18.62-1.745s.899-1.032,1.564-1.401,1.448-.554,2.351-.554c.738,0,1.411.139,2.018.417s1.087.664,1.441,1.156.531,1.066.531,1.723c0,.422-.086.814-.259,1.178s-.437.672-.791.927-.811.438-1.367.55c.908.158,1.617.53,2.127,1.116s.765,1.271.765,2.057c0,.697-.127,1.296-.382,1.797s-.6.911-1.033,1.23-.918.557-1.454.712-1.089.233-1.657.233Z" fill="#0d1117"/>
  <path d="m516.679,372.964v-4.113l.053-.07v-7.277l.466.712-5.484,6.583-.501-.562h8.833v1.564h-9.738v-1.67l6.565-7.822h1.661v12.656h-1.854Z" fill="#0d1117"/>
  <path d="m734.425,372.964v-9.492h1.696v2.153l-.062-.387c.264-.568.665-1.042,1.204-1.42s1.195-.566,1.969-.566c.691,0,1.277.155,1.758.466s.848.747,1.103,1.31.383,1.233.383,2.013v5.924h-1.784v-5.792c0-.756-.146-1.359-.439-1.811s-.782-.677-1.468-.677c-.75,0-1.367.296-1.851.888s-.725,1.456-.725,2.593v4.799h-1.784Z" fill="#0d1117"/>
  <g>
    <path d="m821.004,240.483v-9.8c-.475.422-.918.772-1.331,1.05s-.878.511-1.394.699v-1.811c.287-.129.586-.289.896-.479s.655-.467,1.033-.831.804-.858,1.278-1.485h1.371v12.656h-1.854Z" fill="#0d1117"/>
    <path d="m834.012,240.703c-.908,0-1.708-.209-2.399-.628s-1.231-1.002-1.621-1.749-.585-1.61-.585-2.588.195-1.841.585-2.588.93-1.33,1.621-1.749,1.491-.628,2.399-.628,1.71.211,2.404.633,1.234,1.005,1.621,1.749.58,1.605.58,2.584-.194,1.841-.584,2.588-.931,1.33-1.622,1.749-1.491.628-2.399.628Zm0-1.424c.832,0,1.488-.318,1.969-.954s.721-1.499.721-2.588c0-1.096-.24-1.96-.721-2.593s-1.137-.949-1.969-.949-1.488.316-1.969.949-.721,1.497-.721,2.593c0,1.09.24,1.953.721,2.588s1.137.954,1.969.954Z" fill="#0d1117"/>
    <path d="m839.751,232.406v-1.415h5.194v1.415h-5.194Zm1.371,8.077v-11.127c0-.732.176-1.258.527-1.578s.935-.479,1.749-.479h1.371v1.415h-1.38c-.176,0-.3.038-.373.114s-.11.202-.11.378v11.276h-1.784Z" fill="#0d1117"/>
    <path d="m851.3,240.483v-9.492h1.696v2.153l-.062-.387c.264-.568.665-1.042,1.204-1.419s1.195-.567,1.969-.567c.691,0,1.277.155,1.758.466s.849.747,1.104,1.31.382,1.233.382,2.013v5.924h-1.784v-5.792c0-.756-.146-1.359-.439-1.811s-.782-.677-1.468-.677c-.75,0-1.366.296-1.85.888s-.726,1.456-.726,2.593v4.799h-1.784Z" fill="#0d1117"/>
  </g>
  <g>
    <path d="m796.524,142.563v-9.8c-.475.422-.919.772-1.332,1.05s-.877.511-1.393.699v-1.811c.287-.129.586-.289.896-.479s.654-.467,1.032-.831.805-.858,1.279-1.485h1.371v12.656h-1.854Z" fill="#0d1117"/>
    <path d="m809.532,142.783c-.908,0-1.708-.209-2.399-.628s-1.232-1.002-1.622-1.749-.584-1.61-.584-2.588.194-1.841.584-2.588.931-1.33,1.622-1.749,1.491-.628,2.399-.628,1.709.211,2.403.633,1.235,1.005,1.622,1.749.58,1.605.58,2.584-.195,1.841-.585,2.588-.93,1.33-1.621,1.749-1.491.628-2.399.628Zm0-1.424c.832,0,1.488-.318,1.969-.954s.721-1.499.721-2.588c0-1.096-.24-1.96-.721-2.593s-1.137-.949-1.969-.949-1.488.316-1.969.949-.721,1.497-.721,2.593c0,1.09.24,1.953.721,2.588s1.137.954,1.969.954Z" fill="#0d1117"/>
    <path d="m815.271,134.486v-1.415h5.194v1.415h-5.194Zm1.371,8.077v-11.127c0-.732.176-1.258.527-1.578s.935-.479,1.749-.479h1.371v1.415h-1.38c-.176,0-.301.038-.374.114s-.109.202-.109.378v11.276h-1.784Z" fill="#0d1117"/>
    <path d="m826.82,142.563v-9.492h1.696v2.153l-.062-.387c.264-.568.665-1.042,1.204-1.419s1.195-.567,1.969-.567c.691,0,1.277.155,1.758.466s.848.747,1.103,1.31.383,1.233.383,2.013v5.924h-1.784v-5.792c0-.756-.146-1.359-.439-1.811s-.782-.677-1.468-.677c-.75,0-1.367.296-1.851.888s-.725,1.456-.725,2.593v4.799h-1.784Z" fill="#0d1117"/>
  </g>
  <g>
    <path d="m787.429,188.864c-1.213,0-2.273-.28-3.182-.839s-1.612-1.334-2.113-2.325-.752-2.136-.752-3.437c0-1.266.242-2.386.726-3.362s1.175-1.742,2.074-2.298,1.976-.835,3.229-.835c1.307,0,2.441.335,3.402,1.006s1.596,1.674,1.906,3.01l-1.969.466c-.234-.99-.646-1.723-1.238-2.197s-1.299-.712-2.119-.712c-.844,0-1.562.212-2.157.637s-1.049,1.009-1.362,1.753-.471,1.603-.471,2.575c0,.99.162,1.86.484,2.61s.775,1.333,1.361,1.749,1.281.624,2.084.624c.867,0,1.612-.259,2.236-.778s1.027-1.244,1.209-2.175l2.029.501c-.346,1.307-1,2.304-1.964,2.993s-2.103,1.033-3.415,1.033Z" fill="#0d1117"/>
    <path d="m794.759,188.644v-13.184h1.785v5.924l-.15-.387c.258-.609.658-1.106,1.2-1.49s1.206-.576,1.991-.576c.686,0,1.267.155,1.744.466s.844.747,1.099,1.31.382,1.233.382,2.013v5.924h-1.783v-5.757c0-.797-.139-1.417-.414-1.859s-.77-.664-1.484-.664c-.785,0-1.412.284-1.881.853s-.703,1.421-.703,2.558v4.869h-1.785Z" fill="#0d1117"/>
    <path d="m807.917,188.855c-.627,0-1.18-.117-1.657-.352s-.85-.562-1.116-.984-.4-.911-.4-1.468c0-.604.176-1.144.527-1.622s.884-.855,1.596-1.134,1.609-.417,2.693-.417h1.521l-.158.176v-.527c0-.721-.143-1.271-.427-1.652s-.757-.571-1.419-.571c-.633,0-1.118.163-1.455.488s-.52.769-.549,1.332l-1.934-.404c.064-.51.266-.976.605-1.397s.802-.759,1.385-1.011,1.27-.378,2.061-.378c.785,0,1.434.142,1.943.426s.889.706,1.138,1.266.374,1.255.374,2.087v4.034c0,.193.027.322.083.387s.175.097.356.097h.51v1.415h-1.029c-.475,0-.857-.138-1.15-.413s-.439-.639-.439-1.09v-.606l.281.044c-.088.252-.216.51-.383.773s-.384.51-.65.738-.59.413-.971.554-.826.211-1.336.211Zm.447-1.38c.463,0,.89-.113,1.279-.338s.701-.576.936-1.05.352-1.087.352-1.837v-.114h-1.379c-.738,0-1.318.097-1.74.29s-.72.432-.893.716-.26.564-.26.839c0,.27.061.517.181.743s.306.407.558.545.574.207.967.207Z" fill="#0d1117"/>
    <path d="m815.554,188.644v-9.492h1.697v2.153l-.062-.387c.264-.568.666-1.042,1.205-1.419s1.195-.567,1.969-.567c.691,0,1.277.155,1.758.466s.848.747,1.103,1.31.382,1.233.382,2.013v5.924h-1.783v-5.792c0-.756-.146-1.359-.439-1.811s-.783-.677-1.469-.677c-.75,0-1.366.296-1.85.888s-.725,1.456-.725,2.593v4.799h-1.785Z" fill="#0d1117"/>
    <path d="m826.188,188.644v-9.492h1.697v2.153l-.062-.387c.264-.568.666-1.042,1.205-1.419s1.195-.567,1.969-.567c.691,0,1.277.155,1.758.466s.848.747,1.103,1.31.382,1.233.382,2.013v5.924h-1.783v-5.792c0-.756-.146-1.359-.439-1.811s-.783-.677-1.469-.677c-.75,0-1.366.296-1.85.888s-.725,1.456-.725,2.593v4.799h-1.785Z" fill="#0d1117"/>
    <path d="m840.806,188.864c-.914,0-1.711-.204-2.391-.611s-1.209-.981-1.587-1.723-.567-1.619-.567-2.632.188-1.891.562-2.632.9-1.315,1.574-1.723,1.459-.611,2.355-.611c.51,0,1.021.081,1.537.242s.988.441,1.416.839.77.945,1.027,1.639.387,1.575.387,2.641h-7.707v-1.274h6.143l-.387.527c-.029-.773-.156-1.396-.382-1.868s-.519-.814-.879-1.028-.757-.321-1.19-.321c-.533,0-.989.142-1.367.426s-.666.693-.865,1.226-.299,1.178-.299,1.934c0,1.113.224,1.979.672,2.597s1.094.927,1.938.927c.598,0,1.102-.151,1.512-.453s.715-.743.914-1.323l1.697.519c-.229.58-.543,1.069-.941,1.468s-.867.7-1.406.905-1.127.308-1.766.308Z" fill="#0d1117"/>
    <path d="m848.847,188.644c-.463,0-.848-.138-1.155-.413s-.462-.639-.462-1.09v-11.681h1.793v11.285c0,.193.028.322.084.387s.174.097.355.097h.871v1.415h-1.486Z" fill="#0d1117"/>
    <path d="m861.907,188.864c-1.213,0-2.273-.28-3.182-.839s-1.612-1.334-2.113-2.325-.752-2.136-.752-3.437c0-1.266.242-2.386.726-3.362s1.175-1.742,2.074-2.298,1.976-.835,3.229-.835c1.307,0,2.441.335,3.402,1.006s1.596,1.674,1.906,3.01l-1.969.466c-.234-.99-.646-1.723-1.238-2.197s-1.299-.712-2.119-.712c-.844,0-1.562.212-2.157.637s-1.049,1.009-1.362,1.753-.471,1.603-.471,2.575c0,.99.162,1.86.484,2.61s.775,1.333,1.361,1.749,1.281.624,2.084.624c.867,0,1.612-.259,2.236-.778s1.027-1.244,1.209-2.175l2.029.501c-.346,1.307-1,2.304-1.964,2.993s-2.103,1.033-3.415,1.033Z" fill="#0d1117"/>
    <path d="m872.296,188.644v-11.083h-4.508v-1.573h10.924v1.573h-4.525v11.083h-1.891Z" fill="#0d1117"/>
    <path d="m880.444,188.644v-12.656h1.889v11.083h6.268v1.573h-8.156Z" fill="#0d1117"/>
  </g>
  <g>
    <path d="m584.881,371.524v-9.492h1.696v2.153l-.062-.387c.264-.568.665-1.042,1.204-1.42s1.195-.566,1.969-.566c.691,0,1.277.155,1.758.466s.848.747,1.103,1.31.383,1.233.383,2.013v5.924h-1.784v-5.792c0-.756-.146-1.359-.439-1.811s-.782-.677-1.468-.677c-.75,0-1.367.296-1.851.888s-.725,1.456-.725,2.593v4.799h-1.784Z" fill="#0d1117"/>
    <path d="m599.884,371.524v-12.656h4.096c1.494,0,2.72.25,3.678.751s1.666,1.221,2.123,2.158.686,2.054.686,3.349c0,1.436-.264,2.628-.791,3.577s-1.283,1.656-2.268,2.122-2.159.699-3.524.699h-3.999Zm1.89-1.573h1.916c3.17,0,4.755-1.585,4.755-4.755,0-.979-.16-1.824-.479-2.536s-.82-1.26-1.503-1.644-1.574-.575-2.676-.575h-2.013v9.51Z" fill="#0d1117"/>
    <path d="m616.056,363.447v-1.415h5.194v1.415h-5.194Zm1.371,8.077v-11.127c0-.732.176-1.259.527-1.578s.935-.479,1.749-.479h1.371v1.415h-1.38c-.176,0-.301.038-.374.114s-.109.202-.109.378v11.276h-1.784Zm7.181,0c-.463,0-.849-.138-1.156-.413s-.461-.639-.461-1.09v-11.681h1.793v11.285c0,.193.027.322.083.387s.175.097.356.097h.87v1.415h-1.485Z" fill="#0d1117"/>
    <path d="m628.861,360.564c-.393,0-.72-.131-.98-.392s-.391-.584-.391-.971c0-.398.13-.727.391-.984s.588-.387.98-.387.719.129.979.387.392.586.392.984c0,.387-.131.71-.392.971s-.587.392-.979.392Zm-.896,10.96v-9.492h1.784v9.492h-1.784Z" fill="#0d1117"/>
    <path d="m632.509,374.952v-12.92h1.688v1.96l-.044-.141c.275-.691.706-1.204,1.292-1.538s1.216-.501,1.89-.501c.779,0,1.462.202,2.048.606s1.041.979,1.366,1.723.488,1.626.488,2.646c0,1.025-.164,1.908-.492,2.649s-.785,1.312-1.371,1.71-1.269.598-2.048.598c-.645,0-1.263-.158-1.854-.475s-1.049-.841-1.371-1.573l.167-.062v5.317h-1.758Zm4.263-4.649c.75,0,1.359-.308,1.828-.923s.703-1.491.703-2.628c0-1.107-.228-1.969-.682-2.584s-1.064-.923-1.832-.923c-.463,0-.89.124-1.279.373s-.7.632-.932,1.147-.347,1.178-.347,1.986c0,1.201.247,2.093.742,2.676s1.095.875,1.798.875Z" fill="#0d1117"/>
    <path d="m643.24,366.796v-1.617h6.056v1.617h-6.056Z" fill="#0d1117"/>
    <path d="m650.228,363.447v-1.415h5.194v1.415h-5.194Zm1.371,8.077v-11.127c0-.732.176-1.259.527-1.578s.935-.479,1.749-.479h1.371v1.415h-1.38c-.176,0-.301.038-.374.114s-.109.202-.109.378v11.276h-1.784Zm7.181,0c-.463,0-.849-.138-1.156-.413s-.461-.639-.461-1.09v-11.681h1.793v11.285c0,.193.027.322.083.387s.175.097.356.097h.87v1.415h-1.485Z" fill="#0d1117"/>
    <path d="m666.013,371.744c-.908,0-1.708-.21-2.399-.629s-1.232-1.002-1.622-1.749-.584-1.609-.584-2.588.194-1.842.584-2.589.931-1.33,1.622-1.749,1.491-.628,2.399-.628,1.709.211,2.403.633,1.235,1.005,1.622,1.749.58,1.605.58,2.584-.195,1.841-.585,2.588-.93,1.33-1.621,1.749-1.491.629-2.399.629Zm0-1.424c.832,0,1.488-.318,1.969-.954s.721-1.498.721-2.588c0-1.096-.24-1.96-.721-2.593s-1.137-.949-1.969-.949-1.488.316-1.969.949-.721,1.497-.721,2.593c0,1.09.24,1.952.721,2.588s1.137.954,1.969.954Z" fill="#0d1117"/>
    <path d="m672.719,374.952v-12.92h1.688v1.96l-.044-.141c.275-.691.706-1.204,1.292-1.538s1.216-.501,1.89-.501c.779,0,1.462.202,2.048.606s1.041.979,1.366,1.723.488,1.626.488,2.646c0,1.025-.164,1.908-.492,2.649s-.785,1.312-1.371,1.71-1.269.598-2.048.598c-.645,0-1.263-.158-1.854-.475s-1.049-.841-1.371-1.573l.167-.062v5.317h-1.758Zm4.263-4.649c.75,0,1.359-.308,1.828-.923s.703-1.491.703-2.628c0-1.107-.228-1.969-.682-2.584s-1.064-.923-1.832-.923c-.463,0-.89.124-1.279.373s-.7.632-.932,1.147-.347,1.178-.347,1.986c0,1.201.247,2.093.742,2.676s1.095.875,1.798.875Z" fill="#0d1117"/>
    <path d="m686.992,371.744c-.697,0-1.336-.111-1.916-.334s-1.062-.562-1.446-1.016-.637-1.035-.76-1.744l1.775-.343c.059.686.294,1.198.707,1.538s.942.51,1.587.51,1.146-.154,1.507-.462.541-.678.541-1.111c0-.375-.131-.677-.392-.905s-.657-.39-1.19-.483l-1.072-.202c-.316-.053-.649-.131-.998-.233s-.674-.247-.976-.435-.548-.437-.738-.747-.285-.703-.285-1.178c0-.627.164-1.145.492-1.552s.769-.715,1.322-.923,1.162-.312,1.824-.312c.686,0,1.292.105,1.819.316s.959.514,1.296.909.559.878.664,1.446l-1.828.369c-.041-.328-.132-.617-.272-.866s-.346-.443-.615-.584-.624-.211-1.063-.211c-.516,0-.954.106-1.314.32s-.54.532-.54.954c0,.246.068.455.206.628s.339.313.603.422.589.204.976.286l1.116.229c.498.094.959.238,1.384.435s.768.472,1.028.826.392.822.392,1.402c0,.639-.164,1.187-.492,1.644s-.779.806-1.354,1.046-1.236.36-1.986.36Z" fill="#0d1117"/>
  </g>
  <g>
    <path d="m575.512,118.083v-9.492h1.696v2.153l-.062-.387c.264-.568.665-1.042,1.204-1.419s1.195-.567,1.969-.567c.691,0,1.277.155,1.758.466s.848.747,1.103,1.31.383,1.233.383,2.013v5.924h-1.784v-5.792c0-.756-.146-1.359-.439-1.811s-.782-.677-1.468-.677c-.75,0-1.367.296-1.851.888s-.725,1.456-.725,2.593v4.799h-1.784Z" fill="#0d1117"/>
    <path d="m585.566,113.355v-1.617h6.056v1.617h-6.056Z" fill="#0d1117"/>
    <path d="m597.968,118.303c-.92,0-1.717-.202-2.391-.606s-1.192-.979-1.556-1.723-.545-1.623-.545-2.637c0-1.02.182-1.9.545-2.641s.88-1.314,1.551-1.718,1.467-.606,2.387-.606c.691,0,1.315.126,1.872.378s1.029.617,1.419,1.094.67,1.056.84,1.736l-1.767.431c-.158-.721-.438-1.27-.84-1.648s-.909-.567-1.524-.567c-.832,0-1.467.312-1.903.936s-.654,1.496-.654,2.615.218,1.988.654,2.606,1.071.927,1.903.927c.609,0,1.114-.18,1.516-.541s.685-.889.849-1.586l1.74.422c-.135.51-.331.958-.589,1.345s-.564.712-.919.976-.75.464-1.187.602-.903.207-1.401.207Z" fill="#0d1117"/>
    <path d="m604.103,118.083v-13.184h1.784v5.924l-.149-.387c.258-.609.657-1.106,1.199-1.49s1.206-.576,1.991-.576c.686,0,1.267.155,1.744.466s.844.747,1.099,1.31.383,1.233.383,2.013v5.924h-1.784v-5.757c0-.797-.138-1.417-.413-1.859s-.771-.664-1.485-.664c-.785,0-1.412.284-1.881.853s-.703,1.421-.703,2.558v4.869h-1.784Z" fill="#0d1117"/>
    <path d="m617.26,118.294c-.627,0-1.18-.117-1.657-.352s-.85-.562-1.116-.984-.399-.911-.399-1.468c0-.604.176-1.144.527-1.622s.883-.855,1.595-1.134,1.61-.417,2.694-.417h1.521l-.158.176v-.527c0-.721-.143-1.271-.427-1.652s-.757-.571-1.419-.571c-.633,0-1.118.163-1.455.488s-.52.769-.549,1.332l-1.934-.404c.064-.51.267-.976.606-1.397s.801-.759,1.384-1.011,1.271-.378,2.062-.378c.785,0,1.433.142,1.942.426s.889.706,1.138,1.266.374,1.255.374,2.087v4.034c0,.193.027.322.083.387s.175.097.356.097h.51v1.415h-1.028c-.475,0-.858-.138-1.151-.413s-.439-.639-.439-1.09v-.606l.281.044c-.088.252-.216.51-.383.773s-.384.51-.65.738-.59.413-.971.554-.826.211-1.336.211Zm.448-1.38c.463,0,.889-.113,1.278-.338s.702-.576.937-1.05.352-1.087.352-1.837v-.114h-1.38c-.738,0-1.318.097-1.74.29s-.72.432-.893.716-.259.564-.259.839c0,.27.06.517.18.743s.307.407.559.545.574.207.967.207Z" fill="#0d1117"/>
    <path d="m624.897,118.083v-9.492h1.696v2.153l-.062-.387c.264-.568.665-1.042,1.204-1.419s1.195-.567,1.969-.567c.691,0,1.277.155,1.758.466s.848.747,1.103,1.31.383,1.233.383,2.013v5.924h-1.784v-5.792c0-.756-.146-1.359-.439-1.811s-.782-.677-1.468-.677c-.75,0-1.367.296-1.851.888s-.725,1.456-.725,2.593v4.799h-1.784Z" fill="#0d1117"/>
    <path d="m635.532,118.083v-9.492h1.696v2.153l-.062-.387c.264-.568.665-1.042,1.204-1.419s1.195-.567,1.969-.567c.691,0,1.277.155,1.758.466s.848.747,1.103,1.31.383,1.233.383,2.013v5.924h-1.784v-5.792c0-.756-.146-1.359-.439-1.811s-.782-.677-1.468-.677c-.75,0-1.367.296-1.851.888s-.725,1.456-.725,2.593v4.799h-1.784Z" fill="#0d1117"/>
    <path d="m650.148,118.303c-.914,0-1.711-.204-2.391-.611s-1.209-.981-1.587-1.723-.566-1.619-.566-2.632.188-1.891.562-2.632.899-1.315,1.573-1.723,1.459-.611,2.355-.611c.51,0,1.022.081,1.538.242s.987.441,1.415.839.771.945,1.028,1.639.387,1.575.387,2.641h-7.708v-1.274h6.144l-.387.527c-.029-.773-.157-1.396-.383-1.868s-.519-.814-.879-1.028-.757-.321-1.19-.321c-.533,0-.989.142-1.367.426s-.666.693-.865,1.226-.299,1.178-.299,1.934c0,1.113.224,1.979.672,2.597s1.095.927,1.938.927c.598,0,1.102-.151,1.512-.453s.715-.743.914-1.323l1.696.519c-.229.58-.542,1.069-.94,1.468s-.867.7-1.406.905-1.128.308-1.767.308Z" fill="#0d1117"/>
    <path d="m658.19,118.083c-.463,0-.849-.138-1.156-.413s-.461-.639-.461-1.09v-11.681h1.793v11.285c0,.193.027.322.083.387s.175.097.356.097h.87v1.415h-1.485Z" fill="#0d1117"/>
    <path d="m665.846,118.083v-9.492h1.696v1.6c.24-.51.613-.94,1.12-1.292s1.109-.527,1.807-.527c.639,0,1.189.17,1.652.51s.806.823,1.028,1.45c.316-.604.735-1.081,1.257-1.433s1.119-.527,1.793-.527c.92,0,1.642.333,2.166.998s.787,1.595.787,2.791v5.924h-1.784v-5.854c0-.486-.05-.911-.149-1.274s-.269-.646-.506-.848-.561-.303-.971-.303c-.457,0-.863.136-1.218.409s-.631.661-.83,1.165-.299,1.11-.299,1.819v4.887h-1.784v-5.854c0-.486-.052-.911-.154-1.274s-.27-.646-.501-.848-.552-.303-.962-.303c-.457,0-.864.135-1.222.404s-.638.656-.84,1.16-.303,1.113-.303,1.828v4.887h-1.784Z" fill="#0d1117"/>
    <path d="m684.804,118.303c-.68,0-1.262-.155-1.745-.466s-.853-.749-1.107-1.314-.382-1.235-.382-2.008v-5.924h1.784v5.757c0,.773.144,1.387.431,1.841s.782.681,1.485.681c.504,0,.947-.13,1.331-.391s.686-.661.905-1.2.33-1.222.33-2.048v-4.641h1.784v9.492h-1.696v-2.232l.062.387c-.258.604-.658,1.099-1.2,1.485s-1.202.58-1.981.58Z" fill="#0d1117"/>
    <path d="m691.22,118.083l3.665-4.922-3.349-4.57h2.039l2.452,3.489,2.373-3.489h2.136l-3.498,4.623,3.674,4.869h-2.206l-2.584-3.665-2.619,3.665h-2.083Z" fill="#0d1117"/>
    <path d="m705.634,118.083l5.212-12.656h2.092l5.186,12.656h-2.021l-4.219-10.916-4.228,10.916h-2.021Zm2.856-3.964v-1.538h6.768v1.538h-6.768Z" fill="#0d1117"/>
  </g>
  <g>
    <path d="m608.702,216.004v-9.492h1.696v2.153l-.062-.387c.264-.568.665-1.042,1.204-1.419s1.195-.567,1.969-.567c.691,0,1.277.155,1.758.466s.848.747,1.103,1.31.383,1.233.383,2.013v5.924h-1.784v-5.792c0-.756-.146-1.359-.439-1.811s-.782-.677-1.468-.677c-.75,0-1.367.296-1.851.888s-.725,1.456-.725,2.593v4.799h-1.784Z" fill="#0d1117"/>
    <path d="m618.757,211.275v-1.617h6.056v1.617h-6.056Z" fill="#0d1117"/>
    <path d="m631.158,216.223c-.92,0-1.717-.202-2.391-.606s-1.192-.979-1.556-1.723-.545-1.623-.545-2.637c0-1.02.182-1.9.545-2.641s.88-1.314,1.551-1.718,1.467-.606,2.387-.606c.691,0,1.315.126,1.872.378s1.029.617,1.419,1.094.67,1.056.84,1.736l-1.767.431c-.158-.721-.438-1.27-.84-1.648s-.909-.567-1.524-.567c-.832,0-1.467.312-1.903.936s-.654,1.496-.654,2.615.218,1.988.654,2.606,1.071.927,1.903.927c.609,0,1.114-.18,1.516-.541s.685-.889.849-1.586l1.74.422c-.135.51-.331.958-.589,1.345s-.564.712-.919.976-.75.464-1.187.602-.903.207-1.401.207Z" fill="#0d1117"/>
    <path d="m637.293,216.004v-13.184h1.784v5.924l-.149-.387c.258-.609.657-1.106,1.199-1.49s1.206-.576,1.991-.576c.686,0,1.267.155,1.744.466s.844.747,1.099,1.31.383,1.233.383,2.013v5.924h-1.784v-5.757c0-.797-.138-1.417-.413-1.859s-.771-.664-1.485-.664c-.785,0-1.412.284-1.881.853s-.703,1.421-.703,2.558v4.869h-1.784Z" fill="#0d1117"/>
    <path d="m650.45,216.215c-.627,0-1.18-.117-1.657-.352s-.85-.562-1.116-.984-.399-.911-.399-1.468c0-.604.176-1.144.527-1.622s.883-.855,1.595-1.134,1.61-.417,2.694-.417h1.521l-.158.176v-.527c0-.721-.143-1.271-.427-1.652s-.757-.571-1.419-.571c-.633,0-1.118.163-1.455.488s-.52.769-.549,1.332l-1.934-.404c.064-.51.267-.976.606-1.397s.801-.759,1.384-1.011,1.271-.378,2.062-.378c.785,0,1.433.142,1.942.426s.889.706,1.138,1.266.374,1.255.374,2.087v4.034c0,.193.027.322.083.387s.175.097.356.097h.51v1.415h-1.028c-.475,0-.858-.138-1.151-.413s-.439-.639-.439-1.09v-.606l.281.044c-.088.252-.216.51-.383.773s-.384.51-.65.738-.59.413-.971.554-.826.211-1.336.211Zm.448-1.38c.463,0,.889-.113,1.278-.338s.702-.576.937-1.05.352-1.087.352-1.837v-.114h-1.38c-.738,0-1.318.097-1.74.29s-.72.432-.893.716-.259.564-.259.839c0,.27.06.517.18.743s.307.407.559.545.574.207.967.207Z" fill="#0d1117"/>
    <path d="m658.088,216.004v-9.492h1.696v2.153l-.062-.387c.264-.568.665-1.042,1.204-1.419s1.195-.567,1.969-.567c.691,0,1.277.155,1.758.466s.848.747,1.103,1.31.383,1.233.383,2.013v5.924h-1.784v-5.792c0-.756-.146-1.359-.439-1.811s-.782-.677-1.468-.677c-.75,0-1.367.296-1.851.888s-.725,1.456-.725,2.593v4.799h-1.784Z" fill="#0d1117"/>
    <path d="m668.723,216.004v-9.492h1.696v2.153l-.062-.387c.264-.568.665-1.042,1.204-1.419s1.195-.567,1.969-.567c.691,0,1.277.155,1.758.466s.848.747,1.103,1.31.383,1.233.383,2.013v5.924h-1.784v-5.792c0-.756-.146-1.359-.439-1.811s-.782-.677-1.468-.677c-.75,0-1.367.296-1.851.888s-.725,1.456-.725,2.593v4.799h-1.784Z" fill="#0d1117"/>
    <path d="m683.339,216.223c-.914,0-1.711-.204-2.391-.611s-1.209-.981-1.587-1.723-.566-1.619-.566-2.632.188-1.891.562-2.632.899-1.315,1.573-1.723,1.459-.611,2.355-.611c.51,0,1.022.081,1.538.242s.987.441,1.415.839.771.945,1.028,1.639.387,1.575.387,2.641h-7.708v-1.274h6.144l-.387.527c-.029-.773-.157-1.396-.383-1.868s-.519-.814-.879-1.028-.757-.321-1.19-.321c-.533,0-.989.142-1.367.426s-.666.693-.865,1.226-.299,1.178-.299,1.934c0,1.113.224,1.979.672,2.597s1.095.927,1.938.927c.598,0,1.102-.151,1.512-.453s.715-.743.914-1.323l1.696.519c-.229.58-.542,1.069-.94,1.468s-.867.7-1.406.905-1.128.308-1.767.308Z" fill="#0d1117"/>
    <path d="m691.381,216.004c-.463,0-.849-.138-1.156-.413s-.461-.639-.461-1.09v-11.681h1.793v11.285c0,.193.027.322.083.387s.175.097.356.097h.87v1.415h-1.485Z" fill="#0d1117"/>
    <path d="m699.036,216.004v-9.492h1.696v1.6c.24-.51.613-.94,1.121-1.292.506-.352,1.108-.527,1.806-.527.639,0,1.189.17,1.652.51s.806.823,1.028,1.45c.316-.604.735-1.081,1.257-1.433s1.119-.527,1.793-.527c.92,0,1.642.333,2.167.998.523.665.786,1.595.786,2.791v5.924h-1.784v-5.854c0-.486-.05-.911-.149-1.274s-.269-.646-.505-.848c-.238-.202-.562-.303-.972-.303-.457,0-.863.136-1.218.409s-.631.661-.83,1.165-.299,1.11-.299,1.819v4.887h-1.784v-5.854c0-.486-.052-.911-.153-1.274-.104-.363-.271-.646-.502-.848s-.552-.303-.962-.303c-.457,0-.864.135-1.222.404s-.637.656-.84,1.16c-.201.504-.303,1.113-.303,1.828v4.887h-1.784Z" fill="#0d1117"/>
    <path d="m717.994,216.223c-.68,0-1.261-.155-1.745-.466-.482-.311-.852-.749-1.107-1.314-.254-.565-.382-1.235-.382-2.008v-5.924h1.784v5.757c0,.773.144,1.387.431,1.841s.782.681,1.485.681c.504,0,.947-.13,1.332-.391.383-.261.686-.661.904-1.2.221-.539.33-1.222.33-2.048v-4.641h1.784v9.492h-1.696v-2.232l.062.387c-.258.604-.658,1.099-1.2,1.485s-1.202.58-1.981.58Z" fill="#0d1117"/>
    <path d="m724.41,216.004l3.665-4.922-3.349-4.57h2.039l2.452,3.489,2.373-3.489h2.136l-3.498,4.623,3.674,4.869h-2.206l-2.584-3.665-2.619,3.665h-2.083Z" fill="#0d1117"/>
    <path d="m740.063,216.004v-12.656h5.036c1.295,0,2.312.256,3.054.769s1.112,1.261,1.112,2.246c0,.609-.132,1.112-.396,1.507s-.601.697-1.011.905-.838.338-1.283.391l.026-.035c.926.152,1.677.511,2.254,1.077s.866,1.358.866,2.377c0,.844-.198,1.516-.593,2.017-.396.501-.921.86-1.574,1.077s-1.369.325-2.148.325h-5.344Zm1.89-7.585h3.032c.662,0,1.217-.138,1.666-.413.447-.275.672-.735.672-1.38,0-.516-.175-.938-.523-1.266s-.927-.492-1.735-.492h-3.111v3.551Zm0,6.064h3.331c.656,0,1.169-.108,1.538-.325s.627-.498.773-.844.22-.706.22-1.081c0-.516-.119-.945-.355-1.288-.238-.343-.58-.601-1.029-.773-.447-.173-.991-.259-1.63-.259h-2.848v4.57Z" fill="#0d1117"/>
  </g>
  <g>
    <path d="m77.542,115.204c-.469,0-.855-.138-1.16-.413s-.457-.639-.457-1.09v-6.574h-1.485v-1.415h1.485v-1.951l1.784-.404v2.355h1.846v1.415h-1.846v6.179c0,.193.028.322.083.387s.174.097.356.097h1.45v1.415h-2.057Z" fill="#0d1117"/>
    <path d="m84.063,115.415c-.627,0-1.179-.117-1.657-.352s-.85-.562-1.116-.984-.4-.911-.4-1.468c0-.604.176-1.145.527-1.622s.883-.855,1.595-1.134,1.61-.417,2.694-.417h1.521l-.158.176v-.527c0-.721-.142-1.271-.426-1.652s-.757-.571-1.419-.571c-.633,0-1.118.162-1.455.487s-.52.77-.549,1.332l-1.934-.404c.064-.51.267-.976.606-1.397s.801-.759,1.384-1.011,1.27-.378,2.061-.378c.785,0,1.433.142,1.942.426s.889.706,1.138,1.266.374,1.256.374,2.088v4.034c0,.193.028.322.083.387s.174.097.356.097h.51v1.415h-1.028c-.475,0-.858-.138-1.151-.413s-.439-.639-.439-1.09v-.606l.281.044c-.088.252-.215.51-.382.773s-.384.51-.65.738-.59.413-.971.554-.826.211-1.336.211Zm.448-1.38c.463,0,.889-.113,1.279-.339s.702-.575.936-1.05.352-1.087.352-1.837v-.114h-1.38c-.738,0-1.318.097-1.74.29s-.719.432-.892.716-.259.564-.259.84c0,.27.06.517.18.742s.306.407.558.545.574.207.967.207Z" fill="#0d1117"/>
    <path d="m91.728,118.632v-12.92h1.688v1.96l-.044-.141c.275-.691.706-1.204,1.292-1.538s1.216-.501,1.89-.501c.779,0,1.462.202,2.048.606s1.042.979,1.367,1.723.488,1.626.488,2.646c0,1.025-.164,1.908-.492,2.649s-.785,1.312-1.371,1.71-1.269.598-2.048.598c-.645,0-1.263-.158-1.854-.475s-1.049-.841-1.371-1.573l.167-.062v5.317h-1.758Zm4.263-4.649c.75,0,1.359-.308,1.828-.923s.703-1.491.703-2.628c0-1.107-.227-1.969-.681-2.584s-1.065-.923-1.833-.923c-.463,0-.889.124-1.279.373s-.7.632-.932,1.147-.347,1.178-.347,1.986c0,1.201.248,2.093.743,2.676s1.094.875,1.797.875Z" fill="#0d1117"/>
    <path d="m105.658,115.204l5.212-12.656h2.092l5.186,12.656h-2.021l-4.219-10.916-4.228,10.916h-2.021Zm2.856-3.964v-1.538h6.768v1.538h-6.768Z" fill="#0d1117"/>
  </g>
  <g>
    <path d="m150.052,211.683c-.469,0-.855-.138-1.16-.413s-.457-.639-.457-1.09v-6.574h-1.485v-1.415h1.485v-1.951l1.784-.404v2.355h1.846v1.415h-1.846v6.179c0,.193.028.322.083.387s.174.097.356.097h1.45v1.415h-2.057Z" fill="#0d1117"/>
    <path d="m156.573,211.894c-.627,0-1.179-.117-1.657-.352s-.85-.562-1.116-.984-.4-.911-.4-1.468c0-.604.176-1.144.527-1.622s.883-.855,1.595-1.134,1.61-.417,2.694-.417h1.521l-.158.176v-.527c0-.721-.142-1.271-.426-1.652s-.757-.571-1.419-.571c-.633,0-1.118.163-1.455.488s-.52.769-.549,1.332l-1.934-.404c.064-.51.267-.976.606-1.397s.801-.759,1.384-1.011,1.27-.378,2.061-.378c.785,0,1.433.142,1.942.426s.889.706,1.138,1.266.374,1.255.374,2.087v4.034c0,.193.028.322.083.387s.174.097.356.097h.51v1.415h-1.028c-.475,0-.858-.138-1.151-.413s-.439-.639-.439-1.09v-.606l.281.044c-.088.252-.215.51-.382.773s-.384.51-.65.738-.59.413-.971.554-.826.211-1.336.211Zm.448-1.38c.463,0,.889-.113,1.279-.338s.702-.576.936-1.05.352-1.087.352-1.837v-.114h-1.38c-.738,0-1.318.097-1.74.29s-.719.432-.892.716-.259.564-.259.839c0,.27.06.517.18.743s.306.407.558.545.574.207.967.207Z" fill="#0d1117"/>
    <path d="m164.237,215.111v-12.92h1.688v1.96l-.044-.141c.275-.691.706-1.204,1.292-1.538s1.216-.501,1.89-.501c.779,0,1.462.202,2.048.606s1.042.979,1.367,1.723.488,1.626.488,2.646c0,1.025-.164,1.909-.492,2.65s-.785,1.311-1.371,1.709-1.269.598-2.048.598c-.645,0-1.263-.158-1.854-.475s-1.049-.841-1.371-1.573l.167-.062v5.317h-1.758Zm4.263-4.649c.75,0,1.359-.308,1.828-.923s.703-1.491.703-2.628c0-1.107-.227-1.969-.681-2.584s-1.065-.923-1.833-.923c-.463,0-.889.125-1.279.374s-.7.631-.932,1.147-.347,1.178-.347,1.986c0,1.201.248,2.093.743,2.676s1.094.875,1.797.875Z" fill="#0d1117"/>
    <path d="m179.407,211.683v-12.656h5.036c1.295,0,2.313.256,3.054.769s1.112,1.261,1.112,2.246c0,.609-.132,1.112-.396,1.507s-.601.697-1.011.905-.838.338-1.283.391l.026-.035c.926.152,1.677.511,2.254,1.077s.866,1.358.866,2.377c0,.844-.198,1.516-.593,2.017s-.92.86-1.573,1.077-1.37.325-2.149.325h-5.344Zm1.89-7.585h3.032c.662,0,1.217-.138,1.666-.413s.672-.735.672-1.38c0-.516-.174-.938-.523-1.266s-.927-.492-1.736-.492h-3.111v3.551Zm0,6.064h3.331c.656,0,1.169-.108,1.538-.325s.627-.498.773-.844.22-.706.22-1.081c0-.516-.119-.945-.356-1.288s-.58-.601-1.028-.773-.992-.259-1.63-.259h-2.848v4.57Z" fill="#0d1117"/>
  </g>
  <g>
    <path d="m129.62,305.283l4.518-6.565-4.333-6.091h2.268l3.243,4.852,3.199-4.852h2.18l-4.28,6.144,4.614,6.513h-2.355l-3.428-5.106-3.393,5.106h-2.232Z" fill="#0d1117"/>
    <path d="m142.742,305.283v-12.656h2.654l6.478,11.312-.422.053v-11.364h1.819v12.656h-2.505l-6.645-11.373.439-.062v11.435h-1.819Z" fill="#0d1117"/>
    <path d="m161.585,305.503c-1.271,0-2.37-.265-3.296-.796-.926-.529-1.638-1.284-2.136-2.263s-.747-2.142-.747-3.489.249-2.511.747-3.489,1.21-1.732,2.136-2.263,2.021-.796,3.287-.796,2.37.266,3.296.796,1.638,1.284,2.136,2.263.747,2.142.747,3.489-.249,2.504-.747,3.484c-.498.982-1.21,1.738-2.136,2.268-.926.531-2.021.796-3.287.796Zm0-1.573c.855,0,1.594-.2,2.215-.602s1.099-.977,1.433-1.723c.334-.748.501-1.631.501-2.65,0-1.025-.167-1.91-.501-2.654s-.812-1.316-1.433-1.719c-.621-.4-1.359-.602-2.215-.602s-1.595.201-2.219.602c-.624.402-1.103.975-1.437,1.719s-.501,1.629-.501,2.654c0,1.02.167,1.902.501,2.65.334.746.813,1.321,1.437,1.723s1.364.602,2.219.602Z" fill="#0d1117"/>
    <path d="m169.891,305.283v-12.656h5.133c2.953,0,4.43,1.14,4.43,3.419,0,2.297-1.512,3.445-4.535,3.445h-3.138v5.792h-1.89Zm1.89-7.312h3.199c.82,0,1.453-.162,1.898-.488.445-.324.668-.795.668-1.41,0-.621-.223-1.097-.668-1.428s-1.081-.497-1.907-.497h-3.19v3.823Zm5.59,7.312l-3.428-6.311h2.118l3.445,6.311h-2.136Z" fill="#0d1117"/>
  </g>
  <g>
    <path d="m762.949,90.943c-1.213,0-2.273-.28-3.182-.839s-1.612-1.334-2.113-2.325-.752-2.136-.752-3.437c0-1.266.242-2.386.726-3.362s1.175-1.742,2.074-2.298,1.976-.835,3.229-.835c1.307,0,2.44.335,3.401,1.006s1.597,1.674,1.907,3.01l-1.969.466c-.234-.99-.647-1.723-1.239-2.197s-1.298-.712-2.118-.712c-.844,0-1.562.212-2.157.637s-1.049,1.009-1.362,1.753-.471,1.603-.471,2.575c0,.99.161,1.86.483,2.61s.776,1.333,1.362,1.749,1.28.624,2.083.624c.867,0,1.613-.259,2.237-.778s1.026-1.244,1.208-2.175l2.03.501c-.346,1.307-1,2.304-1.964,2.993s-2.103,1.033-3.415,1.033Z" fill="#0d1117"/>
    <path d="m770.279,90.723v-13.184h1.784v5.924l-.149-.387c.258-.609.658-1.106,1.2-1.49s1.205-.576,1.99-.576c.686,0,1.268.155,1.745.466s.844.747,1.099,1.31.382,1.233.382,2.013v5.924h-1.784v-5.757c0-.797-.138-1.417-.413-1.859s-.771-.664-1.485-.664c-.785,0-1.412.284-1.881.853s-.703,1.421-.703,2.558v4.869h-1.784Z" fill="#0d1117"/>
    <path d="m783.437,90.934c-.627,0-1.179-.117-1.656-.352s-.85-.562-1.116-.984-.4-.911-.4-1.468c0-.604.176-1.144.527-1.622s.884-.855,1.596-1.134,1.609-.417,2.693-.417h1.521l-.158.176v-.527c0-.721-.142-1.271-.426-1.652s-.758-.571-1.42-.571c-.633,0-1.117.163-1.454.488s-.521.769-.55,1.332l-1.934-.404c.064-.51.267-.976.606-1.397s.802-.759,1.385-1.011,1.27-.378,2.061-.378c.785,0,1.433.142,1.942.426s.89.706,1.139,1.266.373,1.255.373,2.087v4.034c0,.193.028.322.084.387s.174.097.355.097h.51v1.415h-1.028c-.475,0-.858-.138-1.151-.413s-.439-.639-.439-1.09v-.606l.281.044c-.088.252-.215.51-.382.773s-.384.51-.65.738-.591.413-.972.554-.826.211-1.336.211Zm.448-1.38c.463,0,.89-.113,1.279-.338s.701-.576.936-1.05.352-1.087.352-1.837v-.114h-1.38c-.738,0-1.318.097-1.74.29s-.719.432-.892.716-.26.564-.26.839c0,.27.061.517.181.743s.306.407.558.545.574.207.967.207Z" fill="#0d1117"/>
    <path d="m791.074,90.723v-9.492h1.696v2.153l-.062-.387c.264-.568.665-1.042,1.204-1.419s1.195-.567,1.969-.567c.691,0,1.277.155,1.758.466s.849.747,1.104,1.31.382,1.233.382,2.013v5.924h-1.784v-5.792c0-.756-.146-1.359-.439-1.811s-.782-.677-1.468-.677c-.75,0-1.366.296-1.85.888s-.726,1.456-.726,2.593v4.799h-1.784Z" fill="#0d1117"/>
    <path d="m801.709,90.723v-9.492h1.696v2.153l-.062-.387c.264-.568.665-1.042,1.204-1.419s1.195-.567,1.969-.567c.691,0,1.277.155,1.758.466s.849.747,1.104,1.31.382,1.233.382,2.013v5.924h-1.784v-5.792c0-.756-.146-1.359-.439-1.811s-.782-.677-1.468-.677c-.75,0-1.366.296-1.85.888s-.726,1.456-.726,2.593v4.799h-1.784Z" fill="#0d1117"/>
    <path d="m816.325,90.943c-.914,0-1.711-.204-2.391-.611s-1.208-.981-1.586-1.723-.567-1.619-.567-2.632.188-1.891.562-2.632.899-1.315,1.573-1.723,1.459-.611,2.355-.611c.51,0,1.022.081,1.538.242s.987.441,1.415.839.771.945,1.028,1.639.387,1.575.387,2.641h-7.708v-1.274h6.144l-.387.527c-.029-.773-.156-1.396-.382-1.868s-.519-.814-.879-1.028-.758-.321-1.191-.321c-.533,0-.988.142-1.366.426s-.667.693-.866,1.226-.299,1.178-.299,1.934c0,1.113.225,1.979.673,2.597s1.094.927,1.938.927c.598,0,1.102-.151,1.512-.453s.715-.743.914-1.323l1.696.519c-.229.58-.542,1.069-.94,1.468s-.867.7-1.406.905-1.128.308-1.767.308Z" fill="#0d1117"/>
    <path d="m824.367,90.723c-.463,0-.848-.138-1.155-.413s-.462-.639-.462-1.09v-11.681h1.793v11.285c0,.193.028.322.084.387s.174.097.355.097h.87v1.415h-1.485Z" fill="#0d1117"/>
    <path d="m837.428,90.943c-1.213,0-2.273-.28-3.182-.839s-1.612-1.334-2.113-2.325-.752-2.136-.752-3.437c0-1.266.242-2.386.726-3.362s1.175-1.742,2.074-2.298,1.976-.835,3.229-.835c1.307,0,2.44.335,3.401,1.006s1.597,1.674,1.907,3.01l-1.969.466c-.234-.99-.647-1.723-1.239-2.197s-1.298-.712-2.118-.712c-.844,0-1.562.212-2.157.637s-1.049,1.009-1.362,1.753-.471,1.603-.471,2.575c0,.99.161,1.86.483,2.61s.776,1.333,1.362,1.749,1.28.624,2.083.624c.867,0,1.613-.259,2.237-.778s1.026-1.244,1.208-2.175l2.03.501c-.346,1.307-1,2.304-1.964,2.993s-2.103,1.033-3.415,1.033Z" fill="#0d1117"/>
    <path d="m847.816,90.723v-11.083h-4.509v-1.573h10.925v1.573h-4.526v11.083h-1.89Z" fill="#0d1117"/>
    <path d="m855.964,90.723v-12.656h1.89v11.083h6.267v1.573h-8.156Z" fill="#0d1117"/>
  </g>
</svg>