<?xml version="1.0" encoding="UTF-8"?><svg id="hidden" xmlns="http://www.w3.org/2000/svg" viewBox="0 0 1080 600.48"><defs><style>.cls-1{letter-spacing:-.01em;}.cls-2,.cls-3{fill:#c9d1d9;}.cls-4{stroke-width:2.88px;}.cls-4,.cls-5,.cls-6{fill:none;stroke-miterlimit:10;}.cls-4,.cls-6{stroke:#c9d1d9;}.cls-5{stroke:#c9d1d9;}.cls-5,.cls-6{stroke-width:2.83px;}.cls-3{font-family:Roboto-Regular, Roboto;font-size:18px;}</style></defs><line class="cls-6" x1="239.04" y1="217.44" x2="239.04" y2="383.04"/><g><line class="cls-6" x1="239.04" y1="383.04" x2="256.39" y2="383.04"/><polygon class="cls-2" points="251.9 389.63 276.48 383.04 251.9 376.45 251.9 389.63"/></g><g><line class="cls-6" x1="436.32" y1="217.44" x2="436.32" y2="318.31"/><polygon class="cls-2" points="429.73 313.82 436.32 338.4 442.91 313.82 429.73 313.82"/></g><line class="cls-5" x1="868.32" y1="383.04" x2="868.32" y2="218.88"/><line class="cls-6" x1="868.32" y1="217.44" x2="239.04" y2="217.44"/><text class="cls-3" transform="translate(250.56 211.68)"><tspan class="cls-1" x="0" y="0">F</tspan><tspan x="9.76" y="0">eedback</tspan></text><rect class="cls-6" x="277.92" y="354.24" width="72" height="57.6" transform="translate(627.84 766.08) rotate(-180)"/><rect class="cls-6" x="751.68" y="354.24" width="72" height="57.6" transform="translate(1575.36 766.08) rotate(-180)"/><g><line class="cls-6" x1="349.92" y1="383.04" x2="371.59" y2="383.04"/><polygon class="cls-2" points="367.1 389.63 391.68 383.04 367.1 376.45 367.1 389.63"/></g><text class="cls-3" transform="translate(308.16 388.8)"><tspan x="0" y="0">D</tspan></text><text class="cls-3" transform="translate(319.96 394.79) scale(.58)"><tspan x="0" y="0">1</tspan></text><text class="cls-3" transform="translate(781.92 388.8)"><tspan x="0" y="0">D</tspan></text><text class="cls-3" transform="translate(793.72 394.79) scale(.58)"><tspan x="0" y="0">4</tspan></text><line class="cls-5" x1="823.68" y1="383.04" x2="868.32" y2="383.04"/><g><g><path class="cls-2" d="M428.37,371.52c-.09-.19-.17-.52-.23-1-.76,.79-1.66,1.18-2.71,1.18-.94,0-1.71-.26-2.31-.79s-.9-1.2-.9-2.02c0-.99,.38-1.76,1.13-2.31s1.81-.82,3.18-.82h1.58v-.75c0-.57-.17-1.02-.51-1.36-.34-.34-.84-.5-1.5-.5-.58,0-1.07,.15-1.46,.44s-.59,.65-.59,1.06h-1.63c0-.47,.17-.93,.51-1.38s.79-.79,1.37-1.05,1.21-.39,1.9-.39c1.1,0,1.95,.27,2.58,.82s.94,1.3,.97,2.26v4.38c0,.87,.11,1.57,.33,2.08v.14h-1.71Zm-2.7-1.24c.51,0,.99-.13,1.45-.4s.79-.61,.99-1.03v-1.95h-1.27c-1.99,0-2.99,.58-2.99,1.75,0,.51,.17,.91,.51,1.2s.78,.43,1.31,.43Z"/><path class="cls-2" d="M431.9,366.69c0-1.46,.35-2.63,1.04-3.52,.69-.89,1.6-1.33,2.72-1.33s2,.38,2.65,1.14v-4.96h1.63v13.5h-1.49l-.08-1.02c-.65,.8-1.56,1.2-2.72,1.2s-2-.45-2.69-1.35-1.04-2.08-1.04-3.53v-.12Zm1.63,.18c0,1.08,.22,1.92,.67,2.53s1.06,.91,1.85,.91c1.03,0,1.78-.46,2.26-1.39v-4.37c-.49-.9-1.23-1.34-2.24-1.34-.8,0-1.42,.31-1.86,.92s-.67,1.53-.67,2.73Z"/><path class="cls-2" d="M442.05,366.69c0-1.46,.35-2.63,1.04-3.52,.69-.89,1.6-1.33,2.72-1.33s2,.38,2.65,1.14v-4.96h1.63v13.5h-1.49l-.08-1.02c-.65,.8-1.56,1.2-2.72,1.2s-2-.45-2.69-1.35-1.04-2.08-1.04-3.53v-.12Zm1.63,.18c0,1.08,.22,1.92,.67,2.53s1.06,.91,1.85,.91c1.03,0,1.78-.46,2.26-1.39v-4.37c-.49-.9-1.23-1.34-2.24-1.34-.8,0-1.42,.31-1.86,.92s-.67,1.53-.67,2.73Z"/><path class="cls-2" d="M420.98,383.61l.04,1.05c.7-.82,1.64-1.23,2.82-1.23,1.33,0,2.24,.51,2.72,1.53,.32-.46,.73-.83,1.23-1.11s1.11-.42,1.8-.42c2.09,0,3.15,1.1,3.18,3.31v6.37h-1.63v-6.28c0-.68-.16-1.19-.47-1.53-.31-.34-.83-.5-1.56-.5-.6,0-1.1,.18-1.5,.54-.4,.36-.63,.85-.69,1.46v6.31h-1.63v-6.23c0-1.38-.68-2.07-2.03-2.07-1.07,0-1.8,.45-2.19,1.36v6.94h-1.63v-9.51h1.54Z"/><path class="cls-2" d="M434.8,388.28c0-.93,.18-1.77,.55-2.51s.88-1.32,1.53-1.72,1.4-.61,2.24-.61c1.29,0,2.34,.45,3.14,1.34s1.2,2.09,1.2,3.58v.11c0,.93-.18,1.76-.53,2.49-.35,.74-.86,1.31-1.52,1.72s-1.42,.62-2.27,.62c-1.29,0-2.33-.45-3.13-1.34s-1.2-2.08-1.2-3.56v-.11Zm1.63,.19c0,1.05,.24,1.9,.73,2.54s1.14,.96,1.96,.96,1.48-.32,1.97-.97c.49-.65,.73-1.55,.73-2.72,0-1.04-.25-1.89-.74-2.54-.5-.65-1.15-.97-1.97-.97s-1.45,.32-1.94,.96-.74,1.55-.74,2.74Z"/><path class="cls-2" d="M445.1,388.29c0-1.46,.35-2.63,1.04-3.52,.69-.89,1.6-1.33,2.72-1.33s2,.38,2.65,1.14v-4.96h1.63v13.5h-1.49l-.08-1.02c-.65,.8-1.56,1.2-2.72,1.2s-2-.45-2.69-1.35-1.04-2.08-1.04-3.53v-.12Zm1.63,.18c0,1.08,.22,1.92,.67,2.53s1.06,.91,1.85,.91c1.03,0,1.78-.46,2.26-1.39v-4.37c-.49-.9-1.23-1.34-2.24-1.34-.8,0-1.42,.31-1.86,.92s-.67,1.53-.67,2.73Z"/><path class="cls-2" d="M440.71,414.72h-8.38v-1.17l4.43-4.92c.66-.74,1.11-1.35,1.36-1.82,.25-.46,.37-.95,.37-1.45,0-.67-.2-1.22-.61-1.64s-.94-.64-1.62-.64c-.81,0-1.44,.23-1.89,.69-.45,.46-.67,1.1-.67,1.92h-1.63c0-1.18,.38-2.13,1.14-2.86s1.77-1.09,3.05-1.09c1.19,0,2.13,.31,2.82,.94,.69,.62,1.04,1.46,1.04,2.49,0,1.26-.8,2.76-2.41,4.5l-3.43,3.72h6.42v1.33Z"/></g><circle class="cls-4" cx="436.32" cy="383.04" r="43.2"/></g><g><line class="cls-6" x1="480.96" y1="383.04" x2="501.19" y2="383.04"/><polygon class="cls-2" points="496.7 389.63 521.28 383.04 496.7 376.45 496.7 389.63"/></g><rect class="cls-6" x="636.48" y="354.24" width="72" height="57.6" transform="translate(1344.96 766.08) rotate(-180)"/><g><line class="cls-6" x1="708.48" y1="383.04" x2="730.15" y2="383.04"/><polygon class="cls-2" points="725.66 389.63 750.24 383.04 725.66 376.45 725.66 389.63"/></g><text class="cls-3" transform="translate(666.72 388.8)"><tspan x="0" y="0">D</tspan></text><text class="cls-3" transform="translate(678.52 394.79) scale(.58)"><tspan x="0" y="0">3</tspan></text><rect class="cls-6" x="521.28" y="354.24" width="72" height="57.6" transform="translate(1114.56 766.08) rotate(-180)"/><g><line class="cls-6" x1="593.28" y1="383.04" x2="614.95" y2="383.04"/><polygon class="cls-2" points="610.46 389.63 635.04 383.04 610.46 376.45 610.46 389.63"/></g><text class="cls-3" transform="translate(551.52 388.8)"><tspan x="0" y="0">D</tspan></text><text class="cls-3" transform="translate(563.32 394.79) scale(.58)"><tspan x="0" y="0">2</tspan></text><circle class="cls-5" cx="436.32" cy="217.44" r="2.88"/></svg>