<?xml version="1.0" encoding="UTF-8"?><svg id="Ebene_6" xmlns="http://www.w3.org/2000/svg" xmlns:xlink="http://www.w3.org/1999/xlink" viewBox="0 0 866.88 306.08"><defs><style>.cls-1,.cls-2{fill:none;}.cls-3{clip-path:url(#clippath);}.cls-4{fill:#1d1e1b;}.cls-5{clip-path:url(#clippath-1);}.cls-6{clip-path:url(#clippath-2);}.cls-2{stroke:#d9d9d9;stroke-linejoin:round;stroke-width:1.04px;}</style><clipPath id="clippath"><rect class="cls-1" x=".6" y="1.51" width="865.37" height="303.06"/></clipPath><clipPath id="clippath-1"><rect class="cls-1" x=".6" y="1.51" width="865.37" height="303.06"/></clipPath><clipPath id="clippath-2"><rect class="cls-1" x=".6" y="1.51" width="865.37" height="303.06"/></clipPath></defs><rect class="cls-1" x="27.5" y="52.88" width="824.28" height="237.49"/><path class="cls-4" d="M27.5,52.88h13.01v236.89h-13.01V52.88Zm78.58,0h12.99v236.89h-12.99V52.88Zm65.27,0h12.99v236.89h-12.99V52.88Zm12.99,0h12.99v236.89h-12.99V52.88Zm52.27,0h13v236.89h-13V52.88Zm26.29,0h12.99v236.89h-12.99V52.88Zm38.98,0h13.29v236.89h-13.29V52.88Zm13.29,0h12.99v236.89h-12.99V52.88Zm12.99,0h13v236.89h-13V52.88Zm13,0h12.99v236.89h-12.99V52.88Zm26.29,0h12.99v236.89h-12.99V52.88Zm52.27,0h13v236.89h-13V52.88Zm13,0h12.99v236.89h-12.99V52.88Zm12.99,0h12.99v236.89h-12.99V52.88Zm39.28,0h12.99v236.89h-12.99V52.88Zm38.98,0h13.29v236.89h-13.29V52.88Zm26.29,0h12.99v236.89h-12.99V52.88Zm12.99,0h12.99v236.89h-12.99V52.88Zm26.29,0h12.99v236.89h-12.99V52.88Zm12.99,0h13v236.89h-13V52.88Zm13,0h12.99v236.89h-12.99V52.88Zm26.29,0h12.99v236.89h-12.99V52.88Zm12.99,0h12.99v236.89h-12.99V52.88Zm39.28,0h13v236.89h-13V52.88Zm13,0h12.99v236.89h-12.99V52.88Zm25.99,0h13.29v236.89h-13.29V52.88Zm26.29,0h12.99v236.89h-12.99V52.88Zm25.99,0h13.3v236.89h-13.3V52.88Zm13.3,0h12.99v236.89h-12.99V52.88Zm12.99,0h12.99v236.89h-12.99V52.88Zm12.99,0h12.99v236.89h-12.99V52.88Zm12.99,0h13.25v236.89h-13.25V52.88Z"/><g class="cls-3"><rect class="cls-1" width="866.88" height="306.08"/><g class="cls-5"><path class="cls-2" d="M27.65,289.61H850.71M27.65,53.03H850.71"/></g><g class="cls-6"><path class="cls-2" d="M27.65,53.03v236.59M40.65,53.03v236.59M53.65,53.03v236.59m13-236.59v236.59m13.29-236.59v236.59m12.99-236.59v236.59m12.99-236.59v236.59m12.99-236.59v236.59m13.29-236.59v236.59m12.99-236.59v236.59m13-236.59v236.59m12.99-236.59v236.59m13.29-236.59v236.59m12.99-236.59v236.59m12.99-236.59v236.59m12.99-236.59v236.59m13.29-236.59v236.59m13-236.59v236.59m12.99-236.59v236.59m12.99-236.59v236.59m13.29-236.59v236.59m12.99-236.59v236.59m12.99-236.59v236.59m12.99-236.59v236.59m13.3-236.59v236.59m12.99-236.59v236.59m12.99-236.59v236.59m12.99-236.59v236.59m13.29-236.59v236.59m12.99-236.59v236.59m12.99-236.59v236.59m13-236.59v236.59m12.99-236.59v236.59m13.29-236.59v236.59m12.99-236.59v236.59m12.99-236.59v236.59m12.99-236.59v236.59m13.29-236.59v236.59m13-236.59v236.59m12.99-236.59v236.59m12.99-236.59v236.59m13.29-236.59v236.59m12.99-236.59v236.59m12.99-236.59v236.59m12.99-236.59v236.59m13.3-236.59v236.59m12.99-236.59v236.59m12.99-236.59v236.59m12.99-236.59v236.59m13.29-236.59v236.59m12.99-236.59v236.59m12.99-236.59v236.59m13-236.59v236.59m13.29-236.59v236.59m12.99-236.59v236.59m12.99-236.59v236.59m12.99-236.59v236.59m13.29-236.59v236.59m12.99-236.59v236.59m13-236.59v236.59m12.99-236.59v236.59m13.29-236.59v236.59m12.99-236.59v236.59m12.95-236.59v236.59"/></g><rect class="cls-1" x=".6" y="1.51" width="865.37" height="303.06"/><rect class="cls-1" x=".6" y="1.51" width="865.37" height="303.06"/></g></svg>