<?xml version="1.0" encoding="UTF-8"?><svg id="hidden" xmlns="http://www.w3.org/2000/svg" viewBox="0 0 1080 600.48"><defs><style>.cls-1{letter-spacing:0em;}.cls-2,.cls-3,.cls-4{fill:#c9d1d9;}.cls-3,.cls-5{stroke:#c9d1d9;stroke-miterlimit:10;stroke-width:1.98px;}.cls-6{letter-spacing:-.01em;}.cls-7{letter-spacing:-.06em;}.cls-8{letter-spacing:0em;}.cls-9{letter-spacing:-.02em;}.cls-4{font-family:Roboto-Regular, Roboto;font-size:18px;}.cls-5{fill:none;}</style></defs><line class="cls-3" x1="927.36" y1="508.32" x2="927.36" y2="416.16"/><line class="cls-3" x1="862.56" y1="508.32" x2="927.36" y2="508.32"/><line class="cls-3" x1="927.36" y1="430.56" x2="984.96" y2="430.56"/><line class="cls-3" x1="927.36" y1="476.64" x2="984.96" y2="476.64"/><line class="cls-3" x1="927.36" y1="453.6" x2="984.96" y2="453.6"/><line class="cls-3" x1="927.36" y1="499.68" x2="984.96" y2="499.68"/><line class="cls-3" x1="753.12" y1="419.04" x2="815.04" y2="419.04"/><line class="cls-3" x1="927.36" y1="416.16" x2="927.36" y2="329.76"/><line class="cls-3" x1="862.56" y1="329.76" x2="927.36" y2="329.76"/><path class="cls-5" d="M862.56,329.76c-26.24,0-47.52,39.97-47.52,89.28s21.28,89.28,47.52,89.28"/><line class="cls-3" x1="927.36" y1="338.4" x2="984.96" y2="338.4"/><line class="cls-3" x1="927.36" y1="384.48" x2="984.96" y2="384.48"/><line class="cls-3" x1="927.36" y1="361.44" x2="984.96" y2="361.44"/><line class="cls-3" x1="927.36" y1="407.52" x2="984.96" y2="407.52"/><line class="cls-3" x1="927.12" y1="321.12" x2="927.12" y2="228.96"/><line class="cls-3" x1="862.32" y1="321.12" x2="927.12" y2="321.12"/><line class="cls-3" x1="927.12" y1="243.36" x2="984.72" y2="243.36"/><line class="cls-3" x1="927.12" y1="289.44" x2="984.72" y2="289.44"/><line class="cls-3" x1="927.12" y1="266.4" x2="984.72" y2="266.4"/><line class="cls-3" x1="927.12" y1="312.48" x2="984.72" y2="312.48"/><line class="cls-3" x1="753.12" y1="231.84" x2="815.04" y2="231.84"/><line class="cls-3" x1="927.12" y1="228.96" x2="927.12" y2="142.56"/><line class="cls-3" x1="862.32" y1="142.56" x2="927.12" y2="142.56"/><path class="cls-5" d="M862.56,142.56c-26.24,0-47.52,39.97-47.52,89.28s21.28,89.28,47.52,89.28"/><line class="cls-3" x1="927.12" y1="151.2" x2="984.72" y2="151.2"/><line class="cls-3" x1="927.12" y1="197.28" x2="984.72" y2="197.28"/><line class="cls-3" x1="927.12" y1="174.24" x2="984.72" y2="174.24"/><line class="cls-3" x1="927.12" y1="220.32" x2="984.72" y2="220.32"/><line class="cls-3" x1="371.52" y1="397.44" x2="583.2" y2="397.44"/><line class="cls-3" x1="695.52" y1="440.64" x2="695.52" y2="354.24"/><line class="cls-3" x1="630.72" y1="440.64" x2="695.52" y2="440.64"/><line class="cls-3" x1="630.72" y1="354.24" x2="695.52" y2="354.24"/><path class="cls-5" d="M630.72,354.24c-26.24,0-47.52,19.34-47.52,43.2s21.28,43.2,47.52,43.2"/><line class="cls-3" x1="695.52" y1="375.84" x2="753.12" y2="375.84"/><line class="cls-3" x1="695.52" y1="419.04" x2="753.12" y2="419.04"/><text class="cls-4" transform="translate(718.56 505.44)"><tspan x="0" y="0">AND</tspan></text><line class="cls-3" x1="753.12" y1="231.84" x2="753.12" y2="375.84"/><text class="cls-4" transform="translate(184.32 440.64)"><tspan class="cls-6" x="0" y="0">X</tspan><tspan x="11.07" y="0">OR</tspan></text><line class="cls-3" x1="97.92" y1="375.84" x2="198.72" y2="375.84"/><path class="cls-5" d="M312.48,419.04c-7.95,0-14.4-24.48-14.4-43.2s6.45-43.2,14.4-43.2"/><line class="cls-3" x1="270.72" y1="419.04" x2="312.48" y2="419.04"/><line class="cls-3" x1="270.72" y1="332.64" x2="312.48" y2="332.64"/><path class="cls-5" d="M270.72,419.04c-39.76,0-72-43.2-72-43.2,0,0,32.24-43.2,72-43.2"/><path class="cls-5" d="M322.56,419.04c-7.95,0-14.4-24.48-14.4-43.2s6.45-43.2,14.4-43.2"/><line class="cls-3" x1="300.96" y1="354.24" x2="371.52" y2="354.24"/><line class="cls-3" x1="300.96" y1="397.44" x2="371.52" y2="397.44"/><path class="cls-5" d="M534.24,272.16c-7.95,0-14.4-24.48-14.4-43.2s6.45-43.2,14.4-43.2"/><line class="cls-3" x1="492.48" y1="272.16" x2="534.24" y2="272.16"/><line class="cls-3" x1="492.48" y1="185.76" x2="534.24" y2="185.76"/><circle class="cls-5" cx="414.72" cy="228.96" r="5.76"/><path class="cls-5" d="M492.48,272.16c-39.76,0-72-43.2-72-43.2,0,0,32.24-43.2,72-43.2"/><path class="cls-5" d="M544.32,272.16c-7.95,0-14.4-24.48-14.4-43.2s6.45-43.2,14.4-43.2"/><line class="cls-3" x1="522.72" y1="207.36" x2="580.32" y2="207.36"/><line class="cls-3" x1="522.72" y1="250.56" x2="580.32" y2="250.56"/><text class="cls-4" transform="translate(472.32 305.28)"><tspan x="0" y="0">XNOR (modulo 2)</tspan></text><line class="cls-3" x1="372.96" y1="228.96" x2="371.52" y2="354.24"/><text class="cls-4" transform="translate(593.28 210.06)"><tspan x="0" y="0">f</tspan><tspan class="cls-8" x="6.25" y="0">r</tspan><tspan x="12.16" y="0">om</tspan><tspan class="cls-9" x="38.21" y="0"> </tspan><tspan class="cls-7" x="42.31" y="0">T</tspan><tspan x="52.06" y="0">ap Q</tspan></text><text class="cls-4" transform="translate(682.06 216.05) scale(.58)"><tspan x="0" y="0">n</tspan></text><text class="cls-4" transform="translate(590.4 256.14)"><tspan x="0" y="0">f</tspan><tspan class="cls-8" x="6.25" y="0">r</tspan><tspan x="12.16" y="0">om</tspan><tspan class="cls-9" x="38.21" y="0"> </tspan><tspan class="cls-7" x="42.31" y="0">T</tspan><tspan x="52.06" y="0">ap Q</tspan></text><text class="cls-4" transform="translate(679.18 262.13) scale(.58)"><tspan x="0" y="0">n-x</tspan></text><text class="cls-4" transform="translate(997.88 157.63)"><tspan x="0" y="0">Q1</tspan></text><text class="cls-4" transform="translate(997.88 180.67)"><tspan x="0" y="0">Q2</tspan></text><text class="cls-4" transform="translate(997.88 203.71)"><tspan x="0" y="0">Q3</tspan></text><text class="cls-4" transform="translate(997.88 225.31)"><tspan x="0" y="0">Q4</tspan></text><text class="cls-4" transform="translate(997.88 249.79)"><tspan x="0" y="0">Q5</tspan></text><text class="cls-4" transform="translate(997.88 272.83)"><tspan x="0" y="0">Q6</tspan></text><text class="cls-4" transform="translate(997.88 295.87)"><tspan x="0" y="0">Q7</tspan></text><text class="cls-4" transform="translate(997.88 317.47)"><tspan x="0" y="0">Q8</tspan></text><text class="cls-4" transform="translate(997.88 344.83)"><tspan x="0" y="0">Q9</tspan></text><text class="cls-4" transform="translate(987.8 367.87)"><tspan x="0" y="0">Q10</tspan></text><text class="cls-4" transform="translate(987.8 390.91)"><tspan x="0" y="0">Q11</tspan></text><text class="cls-4" transform="translate(987.8 412.51)"><tspan x="0" y="0">Q12</tspan></text><text class="cls-4" transform="translate(987.8 436.99)"><tspan x="0" y="0">Q13</tspan></text><text class="cls-4" transform="translate(987.8 460.03)"><tspan x="0" y="0">Q14</tspan></text><text class="cls-4" transform="translate(987.8 483.07)"><tspan x="0" y="0">Q15</tspan></text><text class="cls-4" transform="translate(987.8 504.67)"><tspan x="0" y="0">Q16</tspan></text><g><path class="cls-2" d="M248.1,456.48h-1.69v-12.8h1.69v12.8Z"/><path class="cls-2" d="M252.46,446.97l.05,1.2c.73-.91,1.68-1.37,2.85-1.37,2.01,0,3.02,1.13,3.04,3.4v6.28h-1.63v-6.29c0-.69-.16-1.19-.47-1.52s-.79-.49-1.44-.49c-.53,0-.99,.14-1.39,.42s-.71,.65-.93,1.11v6.78h-1.63v-9.51h1.54Z"/><path class="cls-2" d="M268.89,451.83c0,1.45-.33,2.61-.99,3.5s-1.56,1.33-2.69,1.33-2.06-.37-2.72-1.1v4.58h-1.63v-13.17h1.49l.08,1.05c.66-.82,1.58-1.23,2.76-1.23s2.05,.43,2.71,1.29,1,2.06,1,3.59v.15Zm-1.63-.18c0-1.07-.23-1.92-.69-2.54s-1.08-.93-1.88-.93c-.98,0-1.72,.44-2.21,1.31v4.54c.49,.87,1.23,1.3,2.23,1.3,.78,0,1.4-.31,1.86-.93s.69-1.54,.69-2.76Z"/><path class="cls-2" d="M276.83,455.54c-.63,.74-1.56,1.12-2.79,1.12-1.01,0-1.79-.29-2.32-.88s-.8-1.46-.8-2.62v-6.19h1.63v6.14c0,1.44,.59,2.16,1.76,2.16,1.24,0,2.07-.46,2.48-1.39v-6.92h1.63v9.51h-1.55l-.04-.94Z"/><path class="cls-2" d="M283.09,444.67v2.3h1.78v1.26h-1.78v5.91c0,.38,.08,.67,.24,.86,.16,.19,.43,.29,.81,.29,.19,0,.45-.04,.77-.11v1.31c-.43,.12-.84,.17-1.25,.17-.73,0-1.27-.22-1.64-.66s-.55-1.06-.55-1.87v-5.9h-1.73v-1.26h1.73v-2.3h1.63Z"/><path class="cls-2" d="M299.27,451.83c0,1.45-.33,2.62-1,3.5s-1.56,1.32-2.69,1.32c-1.2,0-2.13-.42-2.79-1.27l-.08,1.1h-1.49v-13.5h1.63v5.04c.66-.81,1.56-1.22,2.72-1.22s2.06,.44,2.72,1.31,.99,2.07,.99,3.59v.14Zm-1.63-.18c0-1.11-.21-1.96-.64-2.57s-1.04-.91-1.85-.91c-1.07,0-1.84,.5-2.31,1.49v4.11c.5,1,1.27,1.49,2.33,1.49,.78,0,1.39-.3,1.82-.91s.65-1.51,.65-2.72Z"/><path class="cls-2" d="M305.78,444.45c0-.26,.08-.49,.24-.67s.4-.27,.72-.27,.56,.09,.72,.27,.25,.4,.25,.67-.08,.48-.25,.66-.4,.26-.72,.26-.56-.09-.72-.26-.24-.4-.24-.66Zm1.76,12.03h-1.63v-9.51h1.63v9.51Z"/><path class="cls-2" d="M311.68,446.97l.05,1.2c.73-.91,1.68-1.37,2.85-1.37,2.01,0,3.02,1.13,3.04,3.4v6.28h-1.63v-6.29c0-.69-.16-1.19-.47-1.52s-.79-.49-1.44-.49c-.53,0-.99,.14-1.39,.42s-.71,.65-.93,1.11v6.78h-1.63v-9.51h1.54Z"/><path class="cls-2" d="M323.21,454.27l2.36-7.3h1.66l-3.41,9.51h-1.24l-3.45-9.51h1.66l2.42,7.3Z"/><path class="cls-2" d="M332.62,456.66c-1.29,0-2.34-.42-3.15-1.27s-1.21-1.98-1.21-3.4v-.3c0-.94,.18-1.79,.54-2.53s.86-1.32,1.51-1.74,1.35-.63,2.1-.63c1.24,0,2.2,.41,2.88,1.22s1.03,1.98,1.03,3.5v.68h-6.44c.02,.94,.3,1.7,.82,2.27s1.19,.87,2,.87c.57,0,1.06-.12,1.46-.35s.75-.54,1.05-.93l.99,.77c-.8,1.22-1.99,1.84-3.59,1.84Zm-.2-8.53c-.66,0-1.21,.24-1.65,.72s-.72,1.15-.83,2.01h4.76v-.12c-.05-.83-.27-1.47-.67-1.92s-.94-.68-1.62-.68Z"/><path class="cls-2" d="M342.81,448.43c-.25-.04-.51-.06-.8-.06-1.07,0-1.79,.45-2.17,1.36v6.75h-1.63v-9.51h1.58l.03,1.1c.53-.85,1.29-1.27,2.27-1.27,.32,0,.56,.04,.72,.12v1.51Z"/><path class="cls-2" d="M346.95,444.67v2.3h1.78v1.26h-1.78v5.91c0,.38,.08,.67,.24,.86,.16,.19,.43,.29,.81,.29,.19,0,.45-.04,.77-.11v1.31c-.43,.12-.84,.17-1.25,.17-.73,0-1.27-.22-1.64-.66s-.55-1.06-.55-1.87v-5.9h-1.73v-1.26h1.73v-2.3h1.63Z"/><path class="cls-2" d="M354.57,456.66c-1.29,0-2.34-.42-3.15-1.27s-1.21-1.98-1.21-3.4v-.3c0-.94,.18-1.79,.54-2.53,.36-.74,.86-1.32,1.51-1.74s1.35-.63,2.11-.63c1.24,0,2.2,.41,2.88,1.22s1.03,1.98,1.03,3.5v.68h-6.44c.02,.94,.3,1.7,.82,2.27,.52,.58,1.19,.87,2,.87,.57,0,1.06-.12,1.46-.35s.75-.54,1.05-.93l.99,.77c-.8,1.22-1.99,1.84-3.59,1.84Zm-.2-8.53c-.66,0-1.21,.24-1.65,.72s-.72,1.15-.83,2.01h4.76v-.12c-.05-.83-.27-1.47-.67-1.92s-.94-.68-1.62-.68Z"/><path class="cls-2" d="M359.76,451.65c0-1.46,.35-2.63,1.04-3.52s1.6-1.33,2.72-1.33,2,.38,2.65,1.14v-4.96h1.63v13.5h-1.49l-.08-1.02c-.65,.8-1.56,1.2-2.72,1.2s-2-.45-2.69-1.35c-.7-.9-1.04-2.08-1.04-3.53v-.12Zm1.63,.18c0,1.08,.22,1.92,.67,2.53s1.06,.91,1.85,.91c1.03,0,1.78-.46,2.26-1.39v-4.37c-.49-.9-1.23-1.34-2.24-1.34-.8,0-1.42,.31-1.86,.92s-.67,1.53-.67,2.73Z"/><path class="cls-2" d="M246.04,466.05c0-.26,.08-.49,.24-.67s.4-.27,.72-.27,.56,.09,.72,.27,.25,.4,.25,.67-.08,.48-.25,.66-.4,.26-.72,.26-.56-.09-.72-.26-.24-.4-.24-.66Zm1.76,12.03h-1.63v-9.51h1.63v9.51Z"/><path class="cls-2" d="M251.2,478.08v-8.25h-1.5v-1.26h1.5v-.98c0-1.02,.27-1.81,.82-2.36s1.32-.83,2.31-.83c.38,0,.75,.05,1.12,.15l-.09,1.31c-.28-.05-.57-.08-.88-.08-.53,0-.93,.15-1.22,.46s-.43,.75-.43,1.33v1h2.03v1.26h-2.03v8.25h-1.63Z"/><path class="cls-2" d="M266.97,478.08c-.09-.19-.17-.52-.23-1-.76,.79-1.66,1.18-2.71,1.18-.94,0-1.71-.27-2.31-.8s-.9-1.2-.9-2.02c0-.99,.38-1.76,1.13-2.31s1.81-.82,3.18-.82h1.58v-.75c0-.57-.17-1.02-.51-1.36s-.84-.5-1.5-.5c-.58,0-1.07,.15-1.46,.44s-.59,.65-.59,1.06h-1.63c0-.47,.17-.93,.51-1.38s.79-.79,1.37-1.05,1.21-.39,1.9-.39c1.1,0,1.95,.27,2.58,.82s.94,1.3,.97,2.26v4.38c0,.87,.11,1.57,.33,2.08v.14h-1.71Zm-2.7-1.24c.51,0,.99-.13,1.45-.4s.79-.61,.99-1.03v-1.95h-1.27c-1.99,0-2.99,.58-2.99,1.75,0,.51,.17,.91,.51,1.2s.78,.43,1.31,.43Z"/><path class="cls-2" d="M272.66,478.08h-1.63v-13.5h1.63v13.5Z"/><path class="cls-2" d="M277.03,478.08h-1.63v-13.5h1.63v13.5Z"/><path class="cls-2" d="M294.12,472.1c0,1.24-.2,2.3-.59,3.19s-.94,1.59-1.65,2.1l2.29,1.79-1.15,1.06-2.7-2.14c-.42,.11-.87,.16-1.34,.16-1.01,0-1.9-.25-2.68-.74s-1.38-1.2-1.81-2.12-.65-1.98-.66-3.19v-.92c0-1.23,.21-2.32,.64-3.26s1.03-1.67,1.81-2.17,1.68-.75,2.69-.75,1.94,.25,2.72,.75,1.38,1.21,1.81,2.15,.63,2.03,.63,3.27v.82Zm-1.69-.83c0-1.51-.3-2.67-.9-3.49s-1.46-1.23-2.57-1.23-1.9,.41-2.51,1.22-.93,1.94-.94,3.38v.94c0,1.46,.31,2.62,.92,3.46s1.46,1.27,2.55,1.27,1.93-.4,2.53-1.19,.91-1.93,.92-3.41v-.95Z"/><path class="cls-2" d="M306.79,478.08c-.09-.19-.17-.52-.23-1-.76,.79-1.66,1.18-2.71,1.18-.94,0-1.71-.27-2.31-.8s-.9-1.2-.9-2.02c0-.99,.38-1.76,1.13-2.31s1.81-.82,3.18-.82h1.58v-.75c0-.57-.17-1.02-.51-1.36s-.84-.5-1.5-.5c-.58,0-1.07,.15-1.46,.44s-.59,.65-.59,1.06h-1.63c0-.47,.17-.93,.51-1.38s.79-.79,1.37-1.05,1.21-.39,1.9-.39c1.1,0,1.95,.27,2.58,.82s.94,1.3,.97,2.26v4.38c0,.87,.11,1.57,.33,2.08v.14h-1.71Zm-2.7-1.24c.51,0,.99-.13,1.45-.4s.79-.61,.99-1.03v-1.95h-1.27c-1.99,0-2.99,.58-2.99,1.75,0,.51,.17,.91,.51,1.2s.78,.43,1.31,.43Z"/><path class="cls-2" d="M315.31,470.03c-.25-.04-.51-.06-.8-.06-1.07,0-1.79,.45-2.17,1.36v6.75h-1.63v-9.51h1.58l.03,1.1c.53-.85,1.29-1.27,2.27-1.27,.32,0,.56,.04,.72,.12v1.51Z"/><path class="cls-2" d="M320.58,478.26c-1.29,0-2.34-.42-3.15-1.27s-1.21-1.98-1.21-3.4v-.3c0-.94,.18-1.79,.54-2.53s.86-1.32,1.51-1.74,1.35-.63,2.1-.63c1.24,0,2.2,.41,2.88,1.22s1.03,1.98,1.03,3.5v.68h-6.44c.02,.94,.3,1.69,.82,2.27s1.19,.87,2,.87c.57,0,1.06-.12,1.46-.35s.75-.54,1.05-.93l.99,.77c-.8,1.22-1.99,1.84-3.59,1.84Zm-.2-8.53c-.66,0-1.21,.24-1.65,.72s-.72,1.15-.83,2.01h4.76v-.12c-.05-.83-.27-1.47-.67-1.92s-.94-.68-1.62-.68Z"/><path class="cls-2" d="M330.19,473.24c0-.93,.18-1.77,.55-2.51s.88-1.32,1.53-1.72,1.4-.61,2.24-.61c1.29,0,2.34,.45,3.14,1.34,.8,.9,1.2,2.09,1.2,3.58v.11c0,.93-.18,1.76-.53,2.49-.36,.74-.86,1.31-1.52,1.72-.66,.41-1.42,.62-2.27,.62-1.29,0-2.33-.45-3.13-1.34s-1.2-2.08-1.2-3.56v-.11Zm1.63,.19c0,1.05,.24,1.9,.73,2.54s1.14,.96,1.96,.96,1.48-.32,1.97-.97,.73-1.55,.73-2.72c0-1.04-.25-1.89-.74-2.54s-1.15-.97-1.97-.97-1.45,.32-1.94,.96-.74,1.55-.74,2.74Z"/><path class="cls-2" d="M342.43,468.57l.05,1.2c.73-.91,1.68-1.37,2.85-1.37,2.01,0,3.02,1.13,3.04,3.4v6.28h-1.63v-6.29c0-.69-.16-1.19-.47-1.52-.31-.33-.79-.49-1.44-.49-.53,0-.99,.14-1.39,.42s-.71,.65-.93,1.11v6.78h-1.63v-9.51h1.54Z"/><path class="cls-2" d="M354.77,478.26c-1.29,0-2.34-.42-3.15-1.27s-1.21-1.98-1.21-3.4v-.3c0-.94,.18-1.79,.54-2.53,.36-.74,.86-1.32,1.51-1.74s1.35-.63,2.11-.63c1.24,0,2.2,.41,2.88,1.22s1.03,1.98,1.03,3.5v.68h-6.44c.02,.94,.3,1.69,.82,2.27,.52,.58,1.19,.87,2,.87,.57,0,1.06-.12,1.46-.35s.75-.54,1.05-.93l.99,.77c-.8,1.22-1.99,1.84-3.59,1.84Zm-.2-8.53c-.66,0-1.21,.24-1.65,.72s-.72,1.15-.83,2.01h4.76v-.12c-.05-.83-.27-1.47-.67-1.92s-.94-.68-1.62-.68Z"/><path class="cls-2" d="M365.9,475.56c0-.44-.17-.78-.5-1.02-.33-.24-.91-.45-1.73-.63s-1.48-.39-1.96-.63c-.48-.25-.84-.54-1.07-.88-.23-.34-.35-.74-.35-1.21,0-.78,.33-1.44,.99-1.98,.66-.54,1.5-.81,2.53-.81,1.08,0,1.95,.28,2.62,.83s1.01,1.27,1.01,2.14h-1.63c0-.45-.19-.83-.57-1.15-.38-.32-.85-.48-1.43-.48s-1.05,.13-1.39,.39-.5,.59-.5,1.01c0,.39,.16,.69,.47,.89s.87,.39,1.68,.57c.81,.18,1.47,.4,1.97,.65s.88,.55,1.12,.91c.24,.35,.36,.79,.36,1.3,0,.85-.34,1.53-1.02,2.04s-1.56,.77-2.65,.77c-.76,0-1.44-.13-2.02-.4s-1.04-.65-1.38-1.13c-.33-.48-.5-1.01-.5-1.57h1.63c.03,.54,.25,.98,.65,1.3s.95,.48,1.61,.48c.62,0,1.11-.12,1.48-.37s.56-.58,.56-1Z"/></g><line class="cls-3" x1="408.96" y1="228.96" x2="372.96" y2="228.96"/><text class="cls-4" transform="translate(70.56 358.56)"><tspan class="cls-8" x="0" y="0">t</tspan><tspan x="5.7" y="0">o first </tspan><tspan class="cls-1" x="56.75" y="0">r</tspan><tspan x="62.67" y="0">egister</tspan></text></svg>