<?xml version="1.0" encoding="UTF-8"?><svg id="hidden" xmlns="http://www.w3.org/2000/svg" viewBox="0 0 1080 600.48"><defs><style>.cls-1{letter-spacing:-.01em;}.cls-2,.cls-3,.cls-4,.cls-5,.cls-6{fill:#0d1117;}.cls-3{stroke-width:2px;}.cls-3,.cls-4,.cls-7,.cls-8,.cls-5,.cls-9,.cls-10{stroke:#0d1117;stroke-miterlimit:10;}.cls-4,.cls-7,.cls-8,.cls-9{stroke-width:2px;}.cls-7{stroke-dasharray:0 0 0 0 0 0 2.8 5.6 2.8 5.6 2.8 5.6;}.cls-7,.cls-8,.cls-9,.cls-10{fill:none;}.cls-5{stroke-width:.28px;}.cls-9{stroke-dasharray:0 0 0 0 2.8 5.6 2.8 5.6;}.cls-6{font-family:Roboto-Regular, Roboto;font-size:18px;}.cls-10{stroke-width:1.98px;}</style></defs><rect class="cls-10" x="48.96" y="403.2" width="72" height="57.6" transform="translate(169.92 864) rotate(-180)"/><rect class="cls-10" x="192.96" y="403.2" width="72" height="57.6" transform="translate(457.92 864) rotate(-180)"/><g><line class="cls-8" x1="120.96" y1="432" x2="175.23" y2="432"/><polygon class="cls-2" points="171.26 437.81 192.96 432 171.26 426.19 171.26 437.81"/></g><rect class="cls-10" x="336.96" y="403.2" width="72" height="57.6" transform="translate(745.92 864) rotate(-180)"/><g><line class="cls-8" x1="264.96" y1="432" x2="319.23" y2="432"/><polygon class="cls-2" points="315.26 437.81 336.96 432 315.26 426.19 315.26 437.81"/></g><rect class="cls-10" x="480.96" y="403.2" width="72" height="57.6" transform="translate(1033.92 864) rotate(-180)"/><g><line class="cls-8" x1="408.96" y1="432" x2="463.23" y2="432"/><polygon class="cls-2" points="459.26 437.81 480.96 432 459.26 426.19 459.26 437.81"/></g><g><line class="cls-8" x1="552.96" y1="432" x2="607.23" y2="432"/><polygon class="cls-2" points="603.26 437.81 624.96 432 603.26 426.19 603.26 437.81"/></g><rect class="cls-10" x="768.96" y="403.2" width="72" height="57.6" transform="translate(1609.92 864) rotate(-180)"/><line class="cls-4" x1="11.52" y1="144" x2="660.96" y2="144"/><line class="cls-3" x1="11.52" y1="273.6" x2="11.52" y2="432"/><g><line class="cls-8" x1="11.52" y1="432" x2="31.23" y2="432"/><polygon class="cls-2" points="27.26 437.81 48.96 432 27.26 426.19 27.26 437.81"/></g><g><line class="cls-8" x1="1019.52" y1="144" x2="796.77" y2="144"/><polygon class="cls-2" points="800.74 138.19 779.04 144 800.74 149.81 800.74 138.19"/></g><g><line class="cls-8" x1="676.8" y1="239.04" x2="676.8" y2="220.77"/><polygon class="cls-2" points="682.61 224.74 676.8 203.04 670.99 224.74 682.61 224.74"/></g><g><line class="cls-8" x1="986.4" y1="432" x2="1037.79" y2="432"/><polygon class="cls-2" points="1033.82 437.81 1055.52 432 1033.82 426.19 1033.82 437.81"/></g><text class="cls-6" transform="translate(76.32 437.76)"><tspan x="0" y="0">D</tspan></text><text class="cls-6" transform="translate(88.12 443.75) scale(.58)"><tspan x="0" y="0">1</tspan></text><text class="cls-6" transform="translate(220.32 437.76)"><tspan x="0" y="0">D</tspan></text><text class="cls-6" transform="translate(232.12 443.75) scale(.58)"><tspan x="0" y="0">2</tspan></text><text class="cls-6" transform="translate(364.32 437.76)"><tspan x="0" y="0">D</tspan></text><text class="cls-6" transform="translate(376.12 443.75) scale(.58)"><tspan x="0" y="0">3</tspan></text><text class="cls-6" transform="translate(508.32 437.76)"><tspan x="0" y="0">D</tspan></text><text class="cls-6" transform="translate(520.12 443.75) scale(.58)"><tspan x="0" y="0">4</tspan></text><text class="cls-6" transform="translate(796.32 437.76)"><tspan x="0" y="0">D</tspan></text><text class="cls-6" transform="translate(808.12 443.75) scale(.58)"><tspan x="0" y="0">n-1</tspan></text><text class="cls-6" transform="translate(702.73 126.72)"><tspan x="0" y="0">add </tspan><tspan x="-.82" y="21.6">mod</tspan><tspan x="12.22" y="43.2">2</tspan></text><line class="cls-3" x1="155.52" y1="432" x2="155.52" y2="374.4"/><circle class="cls-3" cx="155.52" cy="432" r="2.88"/><line class="cls-3" x1="141.12" y1="345.6" x2="155.52" y2="374.4"/><circle class="cls-5" cx="155.52" cy="374.4" r="2.88"/><line class="cls-4" x1="155.52" y1="316.8" x2="155.52" y2="345.6"/><circle class="cls-5" cx="155.52" cy="345.6" r="2.88"/><line class="cls-3" x1="299.52" y1="432" x2="299.52" y2="374.4"/><circle class="cls-3" cx="299.52" cy="432" r="2.88"/><line class="cls-3" x1="285.12" y1="345.6" x2="299.52" y2="374.4"/><circle class="cls-5" cx="299.52" cy="374.4" r="2.88"/><line class="cls-4" x1="299.52" y1="316.8" x2="299.52" y2="345.6"/><circle class="cls-5" cx="299.52" cy="345.6" r="2.88"/><line class="cls-3" x1="443.52" y1="432" x2="443.52" y2="374.4"/><circle class="cls-3" cx="443.52" cy="432" r="2.88"/><line class="cls-3" x1="429.12" y1="345.6" x2="443.52" y2="374.4"/><circle class="cls-5" cx="443.52" cy="374.4" r="2.88"/><line class="cls-4" x1="443.52" y1="316.8" x2="443.52" y2="345.6"/><circle class="cls-5" cx="443.52" cy="345.6" r="2.88"/><line class="cls-3" x1="587.52" y1="432" x2="587.52" y2="374.4"/><circle class="cls-3" cx="587.52" cy="432" r="2.88"/><line class="cls-3" x1="573.12" y1="345.6" x2="587.52" y2="374.4"/><circle class="cls-5" cx="587.52" cy="374.4" r="2.88"/><line class="cls-4" x1="587.52" y1="316.8" x2="587.52" y2="345.6"/><circle class="cls-5" cx="587.52" cy="345.6" r="2.88"/><rect class="cls-10" x="914.4" y="403.2" width="72" height="57.6" transform="translate(1900.8 864) rotate(-180)"/><g><line class="cls-8" x1="841.2" y1="432" x2="895.47" y2="432"/><polygon class="cls-2" points="891.5 437.81 913.2 432 891.5 426.19 891.5 437.81"/></g><text class="cls-6" transform="translate(940.56 437.52)"><tspan x="0" y="0">D</tspan></text><text class="cls-6" transform="translate(952.36 443.51) scale(.58)"><tspan x="0" y="0">n</tspan></text><line class="cls-3" x1="875.48" y1="432" x2="875.48" y2="374.4"/><circle class="cls-3" cx="875.48" cy="432" r="2.88"/><line class="cls-3" x1="861.08" y1="345.6" x2="875.48" y2="374.4"/><circle class="cls-5" cx="875.48" cy="374.4" r="2.88"/><line class="cls-4" x1="875.48" y1="316.8" x2="875.48" y2="345.6"/><circle class="cls-5" cx="875.48" cy="345.6" r="2.88"/><line class="cls-3" x1="1019.52" y1="432" x2="1019.52" y2="374.4"/><circle class="cls-3" cx="1019.52" cy="432" r="2.88"/><line class="cls-3" x1="1005.12" y1="345.6" x2="1019.52" y2="374.4"/><circle class="cls-5" cx="1019.52" cy="374.4" r="2.88"/><line class="cls-4" x1="1019.52" y1="144" x2="1019.52" y2="345.6"/><circle class="cls-5" cx="1019.52" cy="345.6" r="2.88"/><g><line class="cls-8" x1="698.4" y1="239.04" x2="698.4" y2="220.77"/><polygon class="cls-2" points="704.21 224.74 698.4 203.04 692.59 224.74 704.21 224.74"/></g><g><line class="cls-8" x1="720" y1="239.04" x2="720" y2="220.77"/><polygon class="cls-2" points="725.81 224.74 720 203.04 714.19 224.74 725.81 224.74"/></g><g><line class="cls-8" x1="741.6" y1="239.04" x2="741.6" y2="220.77"/><polygon class="cls-2" points="747.41 224.74 741.6 203.04 735.79 224.74 747.41 224.74"/></g><g><line class="cls-8" x1="763.2" y1="259.2" x2="763.2" y2="220.77"/><polygon class="cls-2" points="769.01 224.74 763.2 203.04 757.39 224.74 769.01 224.74"/></g><line class="cls-4" x1="875.52" y1="259.2" x2="763.2" y2="259.2"/><line class="cls-4" x1="875.52" y1="316.8" x2="875.52" y2="259.2"/><line class="cls-4" x1="587.52" y1="302.4" x2="587.52" y2="316.8"/><line class="cls-4" x1="741.6" y1="302.4" x2="587.52" y2="302.4"/><line class="cls-4" x1="741.6" y1="237.6" x2="741.6" y2="302.4"/><line class="cls-4" x1="720" y1="237.6" x2="720" y2="288"/><line class="cls-4" x1="443.52" y1="288" x2="720" y2="288"/><line class="cls-4" x1="443.52" y1="316.8" x2="443.52" y2="288"/><line class="cls-4" x1="698.4" y1="237.6" x2="698.4" y2="266.4"/><line class="cls-4" x1="155.52" y1="316.8" x2="155.52" y2="244.8"/><line class="cls-4" x1="299.52" y1="266.4" x2="698.4" y2="266.4"/><line class="cls-4" x1="299.52" y1="316.8" x2="299.52" y2="266.4"/><line class="cls-4" x1="155.52" y1="244.8" x2="676.8" y2="244.8"/><line class="cls-4" x1="676.8" y1="237.6" x2="676.8" y2="244.8"/><line class="cls-4" x1="11.52" y1="273.6" x2="11.52" y2="144"/><text class="cls-6" transform="translate(244.8 133.92)"><tspan class="cls-1" x="0" y="0">F</tspan><tspan x="9.76" y="0">eedback</tspan></text><text class="cls-6" transform="translate(129.6 505.44)"><tspan x="0" y="0">Clock</tspan></text><rect class="cls-8" x="660.96" y="84.96" width="118.08" height="118.08"/><g><line class="cls-8" x1="725.76" y1="432" x2="751.23" y2="432"/><polygon class="cls-2" points="747.26 437.81 768.96 432 747.26 426.19 747.26 437.81"/></g><g><line class="cls-8" x1="624.96" y1="432" x2="626.38" y2="432"/><line class="cls-9" x1="631.98" y1="432" x2="645.97" y2="432"/><line class="cls-7" x1="648.77" y1="432" x2="721.54" y2="432"/><line class="cls-8" x1="724.34" y1="432" x2="725.76" y2="432"/></g></svg>